<svg width="63" height="63" viewBox="0 0 63 63" fill="none" xmlns="http://www.w3.org/2000/svg">
<g clip-path="url(#clip0)">
<path d="M55.0556 41.1938H50.7477V36.8859C50.7477 35.936 49.975 35.1633 49.0252 35.1633H44.5942C43.6443 35.1633 42.8716 35.936 42.8716 36.8859V41.1938H38.5637C37.6138 41.1938 36.8412 41.9665 36.8412 42.9164V47.3473C36.8412 48.2972 37.6138 49.0699 38.5637 49.0699H42.8716V53.3778C42.8716 54.3277 43.6443 55.1004 44.5942 55.1004H49.0252C49.975 55.1004 50.7477 54.3277 50.7477 53.3778V49.0699H55.0556C56.0055 49.0699 56.7782 48.2972 56.7782 47.3473V42.9164C56.7782 41.9665 56.0055 41.1938 55.0556 41.1938ZM54.9326 47.2242H50.6247C49.6748 47.2242 48.9021 47.9969 48.9021 48.9467V53.2547H44.7172V48.9467C44.7172 47.9969 43.9445 47.2242 42.9947 47.2242H38.6867V43.0393H42.9947C43.9445 43.0393 44.7172 42.2666 44.7172 41.3167V37.0088H48.9021V41.3167C48.9021 42.2666 49.6748 43.0393 50.6247 43.0393H54.9326V47.2242ZM47.1013 13.5393C45.4095 13.5393 44.0332 14.9158 44.0332 16.6075C44.0332 18.2992 45.4095 19.6756 47.1013 19.6756C48.793 19.6756 50.1694 18.2992 50.1694 16.6075C50.1693 14.9158 48.793 13.5393 47.1013 13.5393ZM47.1013 17.8299C46.4272 17.8299 45.8788 17.2815 45.8788 16.6074C45.8788 15.9332 46.4272 15.3848 47.1013 15.3848C47.7755 15.3848 48.3238 15.9332 48.3238 16.6074C48.3237 17.2815 47.7753 17.8299 47.1013 17.8299ZM58.4921 33.9342C60.4216 32.6524 61.3507 30.1543 60.4062 27.8034L60.3179 27.5841C59.818 26.3398 60.1475 24.8962 61.1377 23.9922L61.3126 23.8325C64.2256 21.173 63.1296 16.3521 59.3467 15.2186C59.2729 15.18 57.8441 14.9425 57.13 13.4455C56.9106 12.9853 56.3595 12.7904 55.8998 13.0098C55.4398 13.2292 55.2448 13.78 55.4641 14.2399C56.0802 15.5316 57.2195 16.5079 58.5899 16.9186L58.8169 16.9866C61.2218 17.7071 61.9248 20.7747 60.0685 22.4695L59.8935 22.6292C58.3376 24.0496 57.82 26.3175 58.6054 28.2725L58.6938 28.4918C59.364 30.1601 58.5492 31.9209 57.0761 32.6222C52.5709 28.9183 46.559 28.0039 41.3134 29.9028C42.0633 27.5562 42.444 25.1924 42.444 22.8505C42.444 18.5978 41.2058 14.559 38.897 11.1172C39.6517 9.31382 41.957 8.49316 43.721 9.7169L43.9155 9.85175C45.6465 11.0526 47.9728 11.0527 49.7036 9.85187L49.8981 9.7169C51.508 8.6002 53.3527 9.21158 54.2714 10.3535C54.5908 10.7507 55.1717 10.8134 55.5688 10.4941C55.9659 10.1747 56.0289 9.59386 55.7095 9.19669C54.0428 7.12472 51.028 6.6872 48.8464 8.20032L48.6519 8.33542C47.5501 9.09961 46.0693 9.09974 44.9675 8.3353L44.773 8.20032C42.3614 6.52762 39.2309 7.26868 37.6941 9.49481C33.4882 4.35746 27.1483 1.33908 20.1362 1.70881C8.70114 2.30973 -0.0980821 11.7675 0.103701 23.2396C0.219849 29.8428 3.2979 36.422 9.2521 42.8099C7.16254 44.0563 4.94108 45.2643 2.60876 46.4182C0.339074 47.5409 -0.622472 50.2246 0.419664 52.528L2.71901 57.6106C3.80002 60.0006 6.65009 61.0481 9.03765 59.8744C9.43236 59.6802 9.8246 59.4847 10.2143 59.2877C10.6691 59.0579 10.8516 58.5028 10.6216 58.048C10.3917 57.5931 9.83641 57.4105 9.38191 57.6407C8.99815 57.8347 8.61194 58.0273 8.22338 58.2183C6.78937 58.9233 5.05883 58.3059 4.40045 56.85L2.10111 51.7675C1.47127 50.375 2.05362 48.7518 3.42709 48.0725C10.7331 44.4579 17.0007 40.3108 21.5523 36.0791C25.7726 32.1549 27.2002 29.3405 27.4755 28.9492C28.6218 27.3157 30.3271 23.541 31.3684 19.487C32.4777 15.1676 33.0374 9.72403 30.6431 5.94503C36.5798 9.25882 40.5985 15.57 40.5985 22.8506C40.5985 25.5412 40.0493 28.2716 38.969 30.9714C34.6583 33.3677 31.55 37.6746 30.7966 42.7402C25.7329 47.8393 19.4273 52.1551 13.2186 55.6067C12.7732 55.8542 12.6129 56.416 12.8606 56.8615C13.1081 57.3069 13.67 57.4671 14.1154 57.2196C16.6488 55.8112 19.0365 54.3508 21.274 52.8466C24.9908 55.3462 29.1023 57.7092 33.5068 59.8745C35.2241 60.7188 37.2943 60.424 38.7075 59.1445C41.092 60.5286 43.8599 61.3222 46.8097 61.3222C55.7372 61.3222 63 54.0593 63 45.1319C63 40.7911 61.2826 36.8443 58.4921 33.9342ZM10.8597 41.8272C5.05637 35.6951 2.05866 29.4337 1.94916 23.2071C1.818 15.7604 5.84135 9.24467 11.9292 5.90295C9.50335 9.68368 10.0621 15.1487 11.1764 19.4868C12.2176 23.5406 13.9228 27.3153 15.0691 28.9489C15.2938 29.2689 16.5645 31.7094 19.9338 35.0595C17.3986 37.3668 14.3349 39.6485 10.8597 41.8272ZM21.2728 33.7889C18.4934 31.0359 15.0106 26.7458 15.0106 22.8504C15.0106 19.3977 17.8195 16.5887 21.2724 16.5887C24.7251 16.5887 27.534 19.3977 27.534 22.8504C27.5339 26.7492 24.0524 31.0372 21.2728 33.7889ZM29.0977 20.7354C28.1648 17.2877 25.0109 14.7431 21.2722 14.7431C17.5336 14.7431 14.3796 17.2875 13.4466 20.7351C12.2291 16.7816 11.243 11.3355 13.0733 7.62401C14.7177 4.2893 18.2847 3.38448 22.0153 3.54C25.7038 3.69712 28.2123 5.07121 29.4713 7.62401C31.3011 11.335 30.3157 16.7805 29.0977 20.7354ZM34.321 58.2182C30.2297 56.2067 26.3986 54.0237 22.9113 51.7198C25.6257 49.8033 28.2285 47.7273 30.624 45.4812C30.7334 50.6197 33.2482 55.1763 37.0855 58.0681C36.273 58.5821 35.2238 58.6621 34.321 58.2182ZM46.8097 59.4765C38.9001 59.4765 32.4652 53.0414 32.4652 45.1318C32.4652 37.2221 38.9001 30.7871 46.8097 30.7871C54.7194 30.7871 61.1544 37.2221 61.1544 45.1318C61.1544 53.0414 54.7194 59.4765 46.8097 59.4765ZM52.1625 26.8354C53.8542 26.8354 55.2306 25.4589 55.2306 23.7673C55.2306 22.0755 53.8543 20.6992 52.1625 20.6992C50.4707 20.6992 49.0943 22.0755 49.0943 23.7673C49.0943 25.4591 50.4707 26.8354 52.1625 26.8354ZM52.1625 22.5448C52.8366 22.5448 53.385 23.0931 53.385 23.7673C53.385 24.4414 52.8366 24.9898 52.1625 24.9898C51.4884 24.9898 50.9399 24.4414 50.9399 23.7673C50.9399 23.0931 51.4883 22.5448 52.1625 22.5448Z" fill="black"/>
</g>
<defs>
<clipPath id="clip0">
<rect width="63" height="63" fill="white"/>
</clipPath>
</defs>
</svg>
