<svg width="63" height="63" viewBox="0 0 63 63" fill="none" xmlns="http://www.w3.org/2000/svg">
<path d="M61.5703 22.0109C61.2339 21.6741 60.6883 21.674 60.3518 22.0101L57.8833 24.4756C57.8422 24.5166 57.7875 24.5394 57.7294 24.5394H55.8803V15.4691C55.8803 13.4461 54.2344 11.8001 52.2113 11.8001H40.1508V5.722C40.1508 3.66965 38.4812 2 36.4288 2H34.6492C34.1733 2 33.7876 2.38568 33.7876 2.86165C33.7876 3.33763 34.1733 3.72331 34.6492 3.72331H36.4288C37.5309 3.72331 38.4275 4.62 38.4275 5.722C38.4275 6.04943 38.4276 15.403 38.4276 16.666C36.1144 16.8898 34.027 18.0069 32.5702 19.7435C31.9324 14.4525 30.2849 10.9641 27.6541 9.33669V6.63512C27.6541 5.98681 27.3364 5.38389 26.8044 5.02234C24.6335 3.54742 22.0972 2.76791 19.4696 2.76791C16.8421 2.76791 14.3057 3.54742 12.1347 5.02234C11.6026 5.38389 11.2851 5.98693 11.2851 6.63501V9.19217C9.78799 10.0343 8.58329 11.4605 7.70084 13.4443C7.50737 13.879 7.70314 14.3883 8.13798 14.5816C8.57088 14.7742 9.08109 14.5813 9.27537 14.1445C9.81878 12.9229 10.4921 11.9678 11.2851 11.2877V13.1878C11.2851 14.8018 12.9816 15.8446 14.4256 15.1265C17.5838 13.5557 21.3551 13.5555 24.5135 15.1265C25.2001 15.4679 25.9908 15.4249 26.6294 15.0291C27.2711 14.6316 27.6541 13.9433 27.6541 13.1878V11.5098C28.4544 12.2792 29.1242 13.3475 29.653 14.7056C30.43 16.7006 30.9079 19.3244 31.0782 22.5184C30.8245 22.4589 30.5597 22.4268 30.287 22.4268H28.7321C28.354 21.0604 27.0992 20.0542 25.6139 20.0539C20.7625 20.0529 17.5826 19.8689 14.3366 17.3255C13.8704 16.9603 13.2941 16.7591 12.7137 16.7591H12.7002C11.2619 16.7591 10.0919 17.9292 10.0919 19.3675V22.4268H8.65233C8.28941 22.4268 7.94061 22.4835 7.61364 22.587C7.70302 20.8559 7.88247 19.2842 8.14982 17.8997C8.24 17.4326 7.9344 16.9806 7.46716 16.8903C6.9998 16.8003 6.54806 17.1058 6.45776 17.573C6.10322 19.4092 5.89585 21.5437 5.83978 23.9199C5.51867 24.4049 5.32359 24.98 5.30085 25.6024C5.27546 26.3122 5.47318 26.9919 5.86299 27.566C5.94146 29.918 6.13849 32.505 6.4511 35.2647C6.56575 36.2819 7.42442 37.0489 8.44818 37.0489H15.0691V37.7505C11.9209 38.0246 8.99987 39.4023 6.77014 41.6835C4.33878 44.1706 3 47.4564 3 50.9352V57.5309C3 58.5311 3.81375 59.345 4.81395 59.345H34.1252C35.1254 59.345 35.9393 58.5313 35.9393 57.5309V50.9352C35.9393 49.1399 35.5857 47.3983 34.8883 45.7588C34.7021 45.3207 34.196 45.1168 33.7582 45.3032C33.3202 45.4894 33.1163 45.9953 33.3025 46.4333C33.9087 47.8582 34.216 49.3729 34.216 50.9352V51.8881H30.9894V50.4831C30.9894 50.0071 30.6037 49.6214 30.1277 49.6214C29.6518 49.6214 29.2661 50.0071 29.2661 50.4831V57.6217H9.67299V50.4831C9.67299 50.0071 9.28731 49.6214 8.81134 49.6214C8.33536 49.6214 7.94968 50.0071 7.94968 50.4831V51.8881H4.72331V50.9352C4.72331 47.9093 5.8878 45.0513 8.0023 42.888C9.50801 41.3475 11.3761 40.2806 13.4175 39.7688L18.7521 47.7691C18.912 48.0087 19.1808 48.1527 19.469 48.1527C19.757 48.1527 20.026 48.0087 20.1857 47.7691L25.5229 39.7666C27.7064 40.3111 29.6797 41.4881 31.2349 43.2039C31.555 43.5571 32.0999 43.5829 32.452 43.2638C32.8046 42.9442 32.8315 42.3993 32.5119 42.0467C30.3318 39.6413 27.2477 38.0519 23.8703 37.7513V37.0487H30.2465C31.271 37.0487 32.1301 36.2816 32.2446 35.265C32.4063 33.837 32.5368 32.4583 32.6364 31.1366C34.2709 33.0396 36.6725 34.1789 39.2893 34.1789C44.1111 34.1789 48.0666 30.2524 48.0666 25.4004C48.0666 24.7412 47.9912 24.0996 47.8526 23.4815H54.1566V26.9989C52.5631 27.3871 51.3765 28.8256 51.3765 30.5369C51.3765 32.545 53.0103 34.1789 55.0183 34.1789C57.0264 34.1789 58.6602 32.545 58.6602 30.5369C58.6602 28.8256 57.4734 27.3871 55.8799 26.9989V26.2627H57.729C58.2469 26.2627 58.7339 26.0612 59.1006 25.6951L61.5691 23.2295C61.9061 22.8931 61.9064 22.3475 61.5703 22.0109ZM25.7218 13.5643C25.6576 13.6041 25.4861 13.6857 25.2809 13.5835C23.4612 12.6785 21.4657 12.2263 19.4695 12.2263C17.4738 12.2263 15.4774 12.6788 13.6582 13.5835C13.4531 13.6857 13.2815 13.6041 13.2173 13.5643C13.1393 13.5159 13.0084 13.4028 13.0084 13.1879V6.63512C13.0084 6.55941 13.0447 6.48749 13.1032 6.44786C14.9872 5.16767 17.1888 4.49121 19.4695 4.49121C21.7503 4.49121 23.9517 5.16778 25.8358 6.44774C25.8944 6.48761 25.9307 6.55941 25.9307 6.63512V13.1879C25.9308 13.4028 25.7998 13.5159 25.7218 13.5643ZM34.2158 53.6115V57.5309C34.2158 57.581 34.1752 57.6216 34.1251 57.6216H30.9893V53.6115H34.2158ZM7.94968 53.6115V57.6216H4.81395C4.76386 57.6216 4.72331 57.5809 4.72331 57.5309V53.6115H7.94968ZM39.2893 26.9101C38.4572 26.9101 37.78 26.233 37.78 25.4009C37.78 24.5688 38.4572 23.8917 39.2893 23.8917C40.1214 23.8917 40.7985 24.5688 40.7985 25.4009C40.7985 26.233 40.1214 26.9101 39.2893 26.9101ZM32.8215 27.8959C33.379 27.2623 33.6686 26.4538 33.6385 25.6028C33.6111 24.8296 33.3175 24.129 32.8458 23.584C32.8364 23.2696 32.8245 22.9594 32.8097 22.6546L36.16 24.5895C36.0927 24.8489 36.0567 25.1208 36.0567 25.401C36.0567 25.6812 36.0927 25.9532 36.16 26.2125L32.8117 28.1462C32.8152 28.0624 32.8184 27.9791 32.8215 27.8959ZM42.4184 24.5889L45.7832 22.6461C46.1436 23.4929 46.3434 24.4237 46.3434 25.4003C46.3434 26.3774 46.1435 27.3086 45.7829 28.1554L42.4184 26.2127C42.4858 25.9532 42.5218 25.6811 42.5218 25.4008C42.5218 25.1206 42.4858 24.8485 42.4184 24.5889ZM44.9026 21.1347C44.9078 21.1417 44.9131 21.1487 44.9184 21.1556L41.5545 23.0978C41.1684 22.7179 40.6875 22.4346 40.1511 22.286V18.4008C40.1601 18.402 40.1692 18.4031 40.1784 18.4043C42.0564 18.646 43.7684 19.646 44.9026 21.1347ZM38.4276 18.3989V22.286C37.891 22.4346 37.4101 22.7181 37.0238 23.098L33.6521 21.1508C34.7938 19.6302 36.5078 18.6309 38.4276 18.3989ZM10.9535 24.1501C11.4295 24.1501 11.8152 23.7645 11.8152 23.2885V19.3675C11.8152 18.8794 12.2122 18.4824 12.7002 18.4824H12.7137C12.9106 18.4824 13.1095 18.5533 13.2738 18.682C17.222 21.7755 21.2982 21.7763 25.6136 21.7771C26.4471 21.7772 27.1253 22.4552 27.1253 23.2884C27.1253 23.7643 27.5109 24.15 27.9869 24.15H30.287C31.1555 24.15 31.8863 24.8287 31.9164 25.6631C31.9481 26.5756 31.2154 27.2946 30.3449 27.2946H28.5808C27.7858 27.2946 27.1095 27.8366 26.9365 28.611C26.5605 30.2784 25.6177 31.792 24.2825 32.8728C23.7862 33.2742 23.2522 33.6063 22.6898 33.8683C22.6572 33.8813 22.6254 33.8958 22.5949 33.9124C21.6224 34.3492 20.5664 34.5757 19.469 34.5757C17.722 34.5757 16.0134 33.9711 14.6579 32.8734C13.3212 31.7909 12.3787 30.2774 12.0042 28.6126C11.8306 27.8365 11.1545 27.2946 10.3597 27.2946H8.59432C7.69797 27.2946 6.99118 26.5493 7.02277 25.6646C7.05333 24.8295 7.78425 24.15 8.65222 24.15H10.9535V24.1501ZM8.44795 35.3254C8.30204 35.3254 8.17969 35.2163 8.16326 35.071C7.91545 32.8836 7.74185 30.8096 7.64305 28.879C7.94739 28.9701 8.26677 29.0179 8.59432 29.0179H10.3291C10.7929 31.0494 11.9443 32.8932 13.5734 34.2126C14.0403 34.5907 14.5423 34.9192 15.0689 35.1987V35.3253H8.44795V35.3254ZM19.4692 45.738L15.2841 39.4616C15.5054 39.4436 15.7278 39.4309 15.9515 39.4256C16.4197 39.4142 16.7922 39.026 16.7922 38.5642V35.906C17.6564 36.1638 18.5583 36.2991 19.4691 36.2991C20.3799 36.2991 21.2823 36.1635 22.1472 35.9054V38.5642C22.1472 39.0266 22.5197 39.4142 22.988 39.4256C23.2118 39.431 23.4343 39.4434 23.6554 39.4614L19.4692 45.738ZM30.2466 35.3254H23.8704V35.1983C24.397 34.9187 24.8992 34.5905 25.3663 34.2126C26.994 32.8951 28.1452 31.0519 28.6112 29.0179H30.3448C30.585 29.0179 30.8207 28.9917 31.0495 28.9423C30.9506 30.8466 30.7781 32.8997 30.5322 35.0715C30.5161 35.2163 30.3932 35.3254 30.2466 35.3254ZM33.6522 29.6509L37.0237 27.7038C37.41 28.0839 37.891 28.3673 38.4276 28.5158V32.4029C36.5079 32.171 34.7936 31.1715 33.6522 29.6509ZM40.1511 32.401V28.5158C40.6876 28.3672 41.1684 28.0839 41.5545 27.704L44.9187 29.6464C43.7936 31.1347 42.0929 32.1633 40.1511 32.401ZM40.1509 16.6658V13.5233H52.2113C53.2842 13.5233 54.157 14.3962 54.157 15.469V21.7581H47.276C45.9776 18.9206 43.2488 16.9696 40.1509 16.6658ZM56.9371 30.5368C56.9371 31.5948 56.0765 32.4554 55.0185 32.4554C53.9606 32.4554 53.1 31.5948 53.1 30.5368C53.1 29.4788 53.9606 28.6182 55.0185 28.6182C56.0765 28.6182 56.9371 29.4788 56.9371 30.5368Z" fill="#fff"/>
<path d="M15.9287 25.1522C16.4047 25.1522 16.7904 24.7665 16.7904 24.2905V23.8088C16.7904 23.3328 16.4047 22.9471 15.9287 22.9471C15.4528 22.9471 15.0671 23.3328 15.0671 23.8088V24.2905C15.0671 24.7665 15.4529 25.1522 15.9287 25.1522Z" fill="#fff"/>
<path d="M23.0113 25.1522C23.4873 25.1522 23.8729 24.7665 23.8729 24.2905V23.8088C23.8729 23.3328 23.4873 22.9471 23.0113 22.9471C22.5353 22.9471 22.1496 23.3328 22.1496 23.8088V24.2905C22.1496 24.7665 22.5353 25.1522 23.0113 25.1522Z" fill="#fff"/>
<path d="M17.1087 30.1205C17.881 30.5556 18.6753 30.7731 19.4697 30.7731C20.2639 30.7731 21.0582 30.5556 21.8305 30.1205C22.2451 29.8871 22.3919 29.3616 22.1584 28.9469C21.9249 28.5324 21.3994 28.3854 20.9848 28.619C19.9508 29.2012 18.9881 29.201 17.9545 28.619C17.5403 28.3854 17.0145 28.5323 16.781 28.9469C16.5474 29.3616 16.694 29.8871 17.1087 30.1205Z" fill="#fff"/>
<path d="M20.9401 7.58395H20.3312V6.97493C20.3312 6.49896 19.9455 6.11328 19.4695 6.11328C18.9935 6.11328 18.6079 6.49896 18.6079 6.97493V7.58395H17.999C17.523 7.58395 17.1373 7.96963 17.1373 8.44561C17.1373 8.92158 17.523 9.30726 17.999 9.30726H18.6079V9.91616C18.6079 10.3921 18.9935 10.7778 19.4695 10.7778C19.9455 10.7778 20.3312 10.3921 20.3312 9.91616V9.30726H20.9401C21.416 9.30726 21.8017 8.92158 21.8017 8.44561C21.8017 7.96963 21.416 7.58395 20.9401 7.58395Z" fill="#fff"/>
</svg>
