<svg width="63" height="63" viewBox="0 0 63 63" fill="none" xmlns="http://www.w3.org/2000/svg">
<g clip-path="url(#clip0)">
<path d="M33.12 3.96123H32.4198V3.26096C32.4198 2.7529 32.008 2.34106 31.4999 2.34106C30.9919 2.34106 30.58 2.7529 30.58 3.26096V3.96123H29.8799C29.3718 3.96123 28.96 4.37306 28.96 4.88113C28.96 5.38919 29.3718 5.80103 29.8799 5.80103H30.58V6.50116C30.58 7.00922 30.9919 7.42106 31.4999 7.42106C32.008 7.42106 32.4198 7.00922 32.4198 6.50116V5.80103H33.12C33.628 5.80103 34.0399 5.38919 34.0399 4.88113C34.0399 4.37306 33.628 3.96123 33.12 3.96123Z" fill="black"/>
<path d="M58.4411 59.8536L55.7527 44.1139C55.461 42.4068 54.2499 41.0355 52.5918 40.5353L40.5232 36.894C39.9909 36.7334 39.4386 36.8033 38.9799 37.0537C38.5509 36.6718 38.2381 36.0187 38.2381 35.4139V32.4012C38.2693 32.3744 38.3005 32.3475 38.3315 32.3208C38.3779 32.2809 38.4273 32.2377 38.4779 32.1928H39.6601C41.3009 32.1928 42.823 31.534 43.9459 30.3377C45.0688 29.1414 45.6303 27.5808 45.5266 25.9433L45.199 20.7678V20.6903C45.199 20.5491 45.1883 20.4104 45.1678 20.2747L44.8008 14.4784C44.7687 13.9713 44.3304 13.5866 43.8247 13.6183C43.3176 13.6504 42.9326 14.0875 42.9647 14.5946L43.1818 18.024C42.9419 17.9561 42.689 17.9188 42.4275 17.9188H42.3762C42.1059 17.5086 41.6574 17.2254 41.1299 17.1779C31.5807 16.3186 28.8314 13.4668 26.8238 11.3844C26.4065 10.9516 25.7221 10.9185 24.7898 11.2861C23.1692 11.9248 20.4103 13.989 20.35 17.6749C20.35 17.68 20.3499 17.685 20.3499 17.6901V17.9277C20.1671 17.9423 19.9894 17.9753 19.8181 18.0238L20.1018 13.5414C20.2528 11.1569 21.4533 9.03123 23.3683 7.67931L23.4379 7.8613C23.8997 9.06802 25.0781 9.87878 26.3702 9.87878H36.8698C38.1618 9.87878 39.3403 9.06802 39.8022 7.8613L39.8183 7.81921C40.8123 8.5682 41.6104 9.53966 42.1537 10.675C42.3118 11.0051 42.641 11.198 42.9842 11.198C43.1173 11.198 43.2525 11.1688 43.3806 11.1075C43.839 10.8883 44.0327 10.3389 43.8133 9.88062C43.0648 8.31682 41.9267 7.00403 40.4975 6.04438L41.131 4.38903C41.3718 3.75977 41.3237 3.06024 40.9992 2.46986C40.6747 1.87961 40.11 1.46408 39.4499 1.33008L34.1702 0.257845C32.4779 -0.0859484 30.762 -0.0859484 29.0698 0.257845L23.7902 1.32983C23.13 1.46383 22.5652 1.87924 22.2408 2.46974C21.9163 3.06024 21.8682 3.75964 22.1091 4.38891L22.6941 5.91727C20.1004 7.56734 18.4624 10.3179 18.2657 13.425L17.8298 20.3112C17.8127 20.4354 17.8009 20.5611 17.8009 20.6899V20.7675L17.4733 25.9429C17.3696 27.5803 17.931 29.1411 19.054 30.3373C20.1769 31.5336 21.699 32.1924 23.3398 32.1924H24.5219C24.5726 32.2372 24.622 32.2805 24.6684 32.3205C24.6994 32.3472 24.7306 32.374 24.7618 32.4008V35.4135C24.7618 36.0183 24.449 36.6715 24.02 37.0534C23.5613 36.803 23.0088 36.7328 22.4768 36.8935L10.4081 40.535C8.75013 41.0352 7.53898 42.4065 7.24724 44.1136L6.23739 50.0261C6.15187 50.5269 6.48853 51.0022 6.98933 51.0877C7.48964 51.174 7.96546 50.8367 8.05098 50.3358L9.06083 44.4233C9.2342 43.4087 9.95403 42.5937 10.9394 42.2964L23.0082 38.6548C23.0872 38.6311 23.1713 38.6672 23.2085 38.7406C23.2085 38.7407 23.2088 38.741 23.2088 38.7411L28.971 50.1251C29.1226 50.4248 29.3215 50.6889 29.556 50.9104C30.0721 51.3979 30.7609 51.6794 31.4997 51.6794C31.9699 51.6794 32.4197 51.5654 32.8178 51.3568C33.3295 51.0887 33.7555 50.6643 34.0286 50.125L39.791 38.7406C39.8281 38.667 39.9123 38.6305 39.9914 38.6548L52.0601 42.2963C53.0456 42.5936 53.7654 43.4086 53.9387 44.4231L56.6271 60.1627C56.6853 60.5029 56.5338 60.7436 56.4381 60.8568C56.3425 60.97 56.1309 61.16 55.7858 61.16H50.0869L48.5834 52.3582C48.4979 51.8574 48.023 51.5204 47.5218 51.6063C47.021 51.6918 46.6843 52.1671 46.7698 52.6679L48.2204 61.1599H14.7793L16.2299 52.6679C16.3154 52.1671 15.9788 51.6918 15.478 51.6063C14.9774 51.5206 14.5018 51.8573 14.4163 52.3582L12.9128 61.16H7.21389C6.86874 61.16 6.65698 60.97 6.5615 60.8568C6.46601 60.7436 6.31442 60.5028 6.3725 60.1627L7.30839 54.6836C7.39391 54.1828 7.05725 53.7074 6.55645 53.6219C6.0559 53.536 5.58032 53.873 5.4948 54.3738L4.5589 59.853C4.42503 60.6371 4.64233 61.4355 5.15519 62.0434C5.66805 62.6512 6.41839 62.9999 7.21389 62.9999C7.21488 62.9999 7.21389 62.9999 7.21488 62.9999H55.7862C56.5816 62.9999 57.332 62.6512 57.8449 62.0434C58.3577 61.436 58.5751 60.6376 58.4411 59.8536ZM23.8534 3.35617C23.8907 3.28837 23.9797 3.16914 24.1565 3.13321L29.4361 2.0611C30.1608 1.91406 30.8904 1.84048 31.6202 1.84048C32.3497 1.84048 33.0796 1.91406 33.8041 2.0611L39.0838 3.13321C39.0838 3.13321 39.0838 3.13321 39.084 3.13333C39.2607 3.16914 39.3496 3.28837 39.3869 3.35617C39.4242 3.42409 39.4772 3.56301 39.4127 3.73159L38.084 7.20373C37.8927 7.7033 37.4049 8.03898 36.87 8.03898H26.3704C25.8355 8.03898 25.3476 7.7033 25.1564 7.20373L23.8276 3.73159C23.7631 3.56314 23.8161 3.42409 23.8534 3.35617ZM43.6905 26.0596C43.7616 27.1846 43.376 28.2566 42.6045 29.0784C41.978 29.7458 41.1707 30.1697 40.2858 30.3055C41.2972 29.0533 42.2903 27.3988 42.5706 25.5099C42.9521 25.4905 43.3125 25.3919 43.6382 25.233L43.6905 26.0596ZM20.3956 29.0784C19.6241 28.2566 19.2384 27.1845 19.3095 26.0596L19.3618 25.2331C19.6875 25.3921 20.048 25.4905 20.4294 25.5101C20.7096 27.3988 21.7028 29.0533 22.7143 30.3056C21.8293 30.1697 21.022 29.7458 20.3956 29.0784ZM32.5027 49.0666L32.3872 49.2946C32.3709 49.3269 32.3517 49.357 32.3326 49.3867C32.3265 49.3962 32.3215 49.4068 32.3153 49.416C32.3037 49.4329 32.29 49.4474 32.2776 49.4634C32.2334 49.5199 32.1854 49.5725 32.1314 49.6172C32.1201 49.6266 32.1073 49.6341 32.0956 49.6429C31.9284 49.7687 31.7235 49.8399 31.4999 49.8399C31.1173 49.8399 30.7855 49.636 30.6127 49.2947L26.7923 41.7466H36.2079L32.5027 49.0666ZM37.1391 39.9067H25.8609L25.1503 38.5027C26.0172 37.7776 26.6018 36.5938 26.6018 35.4138V33.8265C27.8061 34.6009 29.313 35.2016 31.4899 35.226C31.4933 35.226 31.4966 35.226 31.5001 35.226C31.5035 35.226 31.5068 35.226 31.5103 35.226C33.6871 35.2016 35.1941 34.6009 36.3983 33.8266V35.4139C36.3983 36.594 36.9828 37.7777 37.8498 38.5029L37.1391 39.9067ZM37.1311 30.9266C35.4299 32.3916 34.1184 33.3544 31.5001 33.3861C28.8819 33.3544 27.5703 32.3915 25.8691 30.9266C23.6107 28.9821 22.2362 26.6073 22.1925 24.5739C22.1818 24.0737 21.7732 23.6737 21.2729 23.6737H20.5726C20.0589 23.6737 19.641 23.2558 19.641 22.7421V20.6903C19.641 20.6474 19.645 20.6055 19.6506 20.5641C19.6532 20.55 19.6552 20.5359 19.6572 20.5217C19.7368 20.0884 20.1166 19.7587 20.5727 19.7587H21.2702C21.7782 19.7587 22.1901 19.3469 22.1901 18.8388V17.6981C22.2452 14.5843 24.8954 13.1293 25.7347 12.9035C28.4325 15.6556 31.7481 18.1582 40.824 18.9977C40.8991 19.4299 41.2763 19.7587 41.7302 19.7587H42.4276C42.8837 19.7587 43.2635 20.0884 43.3432 20.5217C43.3452 20.536 43.3472 20.5502 43.3498 20.5641C43.3554 20.6054 43.3593 20.6474 43.3593 20.6903V22.7421C43.3593 23.2557 42.9415 23.6737 42.4278 23.6737H41.7275C41.2271 23.6737 40.8186 24.0736 40.8078 24.5739C40.7639 26.6072 39.3895 28.982 37.1311 30.9266Z" fill="black"/>
</g>
<defs>
<clipPath id="clip0">
<rect width="63" height="63" fill="white"/>
</clipPath>
</defs>
</svg>
