<svg width="63" height="63" viewBox="0 0 63 63" fill="none" xmlns="http://www.w3.org/2000/svg">
<g clip-path="url(#clip0)">
<path d="M30.4157 15.537L32.9963 12.9559C33.2145 13.3087 33.4722 13.6375 33.7668 13.9379C34.1638 14.3431 34.5681 14.7411 34.9689 15.1424C34.9747 15.1477 34.9805 15.1535 34.9862 15.1592L21.2953 28.8506C20.869 29.2765 20.633 29.8427 20.6296 30.4449C20.6296 30.4449 20.5729 41.61 20.5729 41.6177C20.5705 42.1253 20.9949 42.5487 21.5015 42.5463L32.6743 42.4891C33.2765 42.4862 33.8428 42.2498 34.2686 41.8239L47.96 28.133L49.1405 29.3135C49.1429 29.3164 49.4543 29.6091 49.6187 29.7384C49.6279 29.7461 49.9855 30.0109 50.1643 30.1219L35.2737 45.0121C34.9954 45.2904 34.6262 45.4447 34.233 45.4466L20.0754 45.5187C19.8317 45.5196 19.5986 45.6172 19.4266 45.7893L13.926 51.2899C13.565 51.6508 13.565 52.2358 13.926 52.5963C14.274 52.9443 14.8714 52.9572 15.2324 52.5963L20.4648 47.3644L34.2422 47.2942C35.1251 47.2899 35.9557 46.9433 36.5801 46.319L52.0354 30.8631C52.4349 30.9458 52.8463 30.989 53.2649 30.989C54.7579 30.989 56.221 30.4497 57.3889 29.5264C57.3889 29.5264 61.0573 26.6266 61.0582 26.6257C63.9878 24.3099 63.6475 19.2438 59.7312 18.2219C57.4928 17.6375 54.1484 16.2652 50.9266 13.0434C47.4673 9.58414 45.3923 5.28519 44.8973 3.38806C43.8759 -0.527338 38.8031 -0.85995 36.4936 2.06097C36.4936 2.06097 33.5933 5.72979 33.5928 5.72979C32.4128 7.22318 31.8687 9.20731 32.2556 11.0838L29.1093 14.2301C28.7483 14.5911 28.7483 15.1761 29.1093 15.537C29.4698 15.898 30.0547 15.898 30.4157 15.537ZM46.6531 26.8266L39.166 34.3142L28.805 23.9532L36.2926 16.4656L46.6531 26.8266ZM35.3169 38.1628L24.956 27.8023L27.4986 25.2597L37.8596 35.6206L35.3169 38.1628ZM32.6647 40.642L22.4253 40.6939L22.4773 30.4545C22.4782 30.3421 22.522 30.2363 22.6017 30.157L23.6496 29.1087L34.0105 39.4697L32.9622 40.518C32.8829 40.5973 32.7771 40.641 32.6647 40.642ZM34.0071 9.31786C34.1191 8.43106 34.4945 7.56973 35.0425 6.87615C35.0425 6.87615 37.9418 3.20877 37.9432 3.20685C39.326 1.45776 42.4661 1.38854 43.1097 3.85477C43.675 6.02203 45.8759 10.606 49.6197 14.3503C53.1347 17.8648 56.805 19.3678 59.2649 20.01C61.7288 20.6526 61.6562 23.798 59.9124 25.1765L56.2436 28.0768C55.5221 28.6468 54.6776 29.0039 53.8009 29.1092C52.5868 29.2548 51.3207 28.8809 50.4474 28.0075C50.4474 28.0075 35.7413 13.3015 35.7399 13.3005C34.6229 12.183 33.7995 10.9665 34.0071 9.31786Z" fill="black"/>
<path d="M4.3667 62.1556C5.00933 62.7982 5.85336 63.1193 6.69786 63.1193C7.54189 63.1193 8.38591 62.7982 9.02854 62.1556C10.0869 61.0972 10.273 59.4923 9.58802 58.2407L12.644 55.1847C13.005 54.8237 13.005 54.2387 12.644 53.8783C12.2835 53.5173 11.6986 53.5173 11.3376 53.8783L8.37534 56.8405L6.27873 54.7439L17.3304 43.6928C17.5024 43.5207 17.5995 43.2876 17.601 43.0439L17.6726 28.8867C17.675 28.4936 17.8288 28.124 18.1071 27.8457L27.8543 18.0985C28.2147 17.738 28.2147 17.1531 27.8543 16.7921C27.4933 16.4316 26.9083 16.4316 26.5474 16.7921L16.8007 26.5392C16.1758 27.1636 15.8298 27.9937 15.825 28.8771L15.7553 42.6545L4.87859 53.5312C3.62697 52.8463 2.02256 53.0323 0.963679 54.0907C-0.321104 55.376 -0.321104 57.4673 0.963679 58.7525L4.3667 62.1556ZM2.27009 55.3971C2.81515 54.8525 3.75483 54.8338 4.31911 55.3971C4.31911 55.3971 7.72165 58.8001 7.72213 58.8006C8.2869 59.3654 8.2869 60.2844 7.72213 60.8491C7.15688 61.4139 6.23788 61.4139 5.67311 60.8491L2.27009 57.4461C1.70533 56.8814 1.70533 55.9624 2.27009 55.3971Z" fill="black"/>
</g>
<defs>
<clipPath id="clip0">
<rect width="63" height="63" fill="white"/>
</clipPath>
</defs>
</svg>
