<svg width="63" height="63" viewBox="0 0 63 63" fill="none" xmlns="http://www.w3.org/2000/svg">
<g clip-path="url(#clip0)">
<path d="M25.6377 23.4609C26.7976 23.816 27.9834 23.992 29.1632 23.992C31.0981 23.992 33.0163 23.5185 34.7738 22.5852C40.6128 19.4848 42.8404 12.2115 39.7391 6.37181C38.2368 3.54308 35.723 1.46888 32.6604 0.531262C29.5981 -0.406601 26.3537 -0.0954157 23.5243 1.40686L23.5242 1.40699C17.686 4.50888 15.4586 11.7821 18.559 17.6203C20.0613 20.4491 22.5752 22.5232 25.6377 23.4609ZM24.3903 3.03687L24.3902 3.03699C26.784 1.76591 29.5293 1.50309 32.1202 2.29612C34.7111 3.08928 36.838 4.84418 38.109 7.23756C40.7329 12.1785 38.8484 18.3322 33.9081 20.9553C31.5143 22.2265 28.7693 22.4896 26.1782 21.6963C23.5872 20.903 21.4604 19.1481 20.1893 16.7547C17.566 11.8152 19.4506 5.66133 24.3903 3.03687Z" fill="black"/>
<path d="M24.2747 14.9923H26.156V16.87C26.156 18.0404 27.1067 18.9925 28.2753 18.9925H30.0228C31.1932 18.9925 32.1455 18.0404 32.1455 16.87V14.9923H34.0234C35.194 14.9923 36.1462 14.0401 36.1462 12.8697V11.1223C36.1462 9.9519 35.194 8.99976 34.0234 8.99976H32.1455V7.12207C32.1455 5.95165 31.1932 4.99951 30.0228 4.99951H28.2753C27.1067 4.99951 26.156 5.95165 26.156 7.12207V8.99976H24.2747C23.1042 8.99976 22.1519 9.9519 22.1519 11.1223V12.8697C22.1519 14.0401 23.1042 14.9923 24.2747 14.9923ZM23.9977 11.1223C23.9977 10.9722 24.1245 10.8453 24.2747 10.8453H27.079C27.5887 10.8453 28.0019 10.4323 28.0019 9.92249V7.12195C28.0019 6.97183 28.1271 6.84497 28.2753 6.84497H30.0228C30.1729 6.84497 30.2998 6.97183 30.2998 7.12195V9.92249C30.2998 10.4322 30.713 10.8453 31.2226 10.8453H34.0234C34.1735 10.8453 34.3004 10.9722 34.3004 11.1223V12.8697C34.3004 13.0198 34.1735 13.1467 34.0234 13.1467H31.2226C30.713 13.1467 30.2998 13.5598 30.2998 14.0695V16.8701C30.2998 17.0202 30.1729 17.1471 30.0228 17.1471H28.2753C28.127 17.1471 28.0019 17.0202 28.0019 16.8701V14.0695C28.0019 13.5599 27.5887 13.1467 27.079 13.1467H24.2747C24.1245 13.1467 23.9977 13.0198 23.9977 12.8697V11.1223Z" fill="black"/>
<path d="M59.4108 54.072V46.4719H61.8852C62.395 46.4719 62.8082 46.0588 62.8082 45.549V27.0575C62.8082 25.1045 61.2174 23.5155 59.2623 23.5155C57.6283 23.5155 56.2499 24.6278 55.8427 26.1347H47.5254C47.0156 26.1347 46.6025 26.5477 46.6025 27.0575C46.6025 27.5673 47.0157 27.9804 47.5254 27.9804H55.7199V44.6264H30.7679V31.731C30.7679 29.6628 32.4505 27.9802 34.5188 27.9802H43.263C43.7728 27.9802 44.1859 27.5672 44.1859 27.0574C44.1859 26.5476 43.7727 26.1345 43.263 26.1345H34.5188C31.4328 26.1345 28.922 28.6449 28.922 31.731V31.9799H17.8957C17.8604 30.5357 16.9821 29.1747 15.5868 28.5973C15.5614 28.5867 15.5354 28.5774 15.5091 28.5691L7.08824 25.9395V21.1878C7.08824 19.2328 5.49749 17.6423 3.5424 17.6423C1.58903 17.6422 0 19.2327 0 21.1877V29.8232C0 30.3329 0.413191 30.7461 0.922852 30.7461C1.43251 30.7461 1.8457 30.333 1.8457 29.8232V21.1877C1.8457 20.2503 2.60675 19.4878 3.54227 19.4878C4.47964 19.4878 5.24229 20.2503 5.24229 21.1877V40.3071C5.24229 40.8167 5.65548 41.2299 6.16514 41.2299H28.9218V44.6262H1.84583V34.0851C1.84583 33.5754 1.43263 33.1622 0.922975 33.1622C0.413314 33.1622 0.000123047 33.5753 0.000123047 34.0851V45.549C0.000123047 46.0587 0.413314 46.4719 0.922975 46.4719H4.34257V54.072C2.29581 54.4991 0.753539 56.317 0.753539 58.4885C0.753539 60.9761 2.77766 63.0001 5.26554 63.0001C7.75343 63.0001 9.77755 60.9761 9.77755 58.4885C9.77755 56.317 8.23516 54.4992 6.18852 54.072V51.1454H57.565V54.072C55.5183 54.4991 53.9759 56.317 53.9759 58.4885C53.9759 60.9761 56 63.0001 58.4879 63.0001C60.9758 63.0001 63 60.976 63 58.4884C63 56.3168 61.4576 54.4991 59.4108 54.072ZM59.2622 25.3611C60.1997 25.3611 60.9622 26.122 60.9622 27.0575V44.6263H57.5658V27.0575C57.5658 26.122 58.3268 25.3611 59.2622 25.3611ZM14.9153 30.3174C15.5911 30.6128 16.0197 31.2742 16.0507 31.98H7.08824V27.8729L14.9153 30.3174ZM7.08824 39.3844V33.8256H16.8454H28.922V39.3844H7.08824ZM7.9316 58.4884C7.9316 59.9584 6.73559 61.1543 5.26542 61.1543C3.79526 61.1543 2.59924 59.9584 2.59924 58.4884C2.59924 57.0182 3.79526 55.8223 5.26542 55.8223C6.73559 55.8223 7.9316 57.0183 7.9316 58.4884ZM6.18827 49.2998V46.472H57.565V49.2998H6.18827ZM58.488 61.1544C57.0178 61.1544 55.8218 59.9585 55.8218 58.4885C55.8218 57.0183 57.0178 55.8224 58.488 55.8224C59.9582 55.8224 61.1542 57.0183 61.1542 58.4885C61.1542 59.9584 59.9582 61.1544 58.488 61.1544Z" fill="black"/>
</g>
<defs>
<clipPath id="clip0">
<rect width="63" height="63" fill="white"/>
</clipPath>
</defs>
</svg>
