<svg width="63" height="63" viewBox="0 0 63 63" fill="none" xmlns="http://www.w3.org/2000/svg">
<g clip-path="url(#clip0)">
<path d="M49.1914 9.50193C49.0109 6.72427 46.6936 4.51963 43.8711 4.51963C43.6092 4.51963 43.3476 4.53895 43.0892 4.57722C42.1997 2.77938 40.336 1.60207 38.3071 1.60207C37.786 1.60207 37.2725 1.67725 36.7751 1.82626C35.3332 0.646119 33.4739 0 31.5 0C29.5261 0 27.6666 0.646242 26.225 1.82626C25.7281 1.67737 25.2144 1.60207 24.693 1.60207C22.6642 1.60207 20.8007 2.77914 19.9109 4.57722C19.6523 4.53895 19.3907 4.51963 19.1289 4.51963C16.307 4.51963 13.9902 6.72291 13.8087 9.5018C13.1713 9.85864 12.568 10.2817 12.0117 10.762C11.626 11.0951 11.5833 11.6778 11.9163 12.0636C12.2493 12.4493 12.8321 12.492 13.2179 12.159C13.7531 11.6971 14.3398 11.2993 14.9635 10.9758C15.3827 10.7574 15.6431 10.3272 15.6431 9.85101C15.6431 7.92889 17.2069 6.36521 19.129 6.36521C19.4089 6.36521 19.688 6.39881 19.9594 6.46537C20.5754 6.61648 21.2107 6.28216 21.4369 5.68932C21.9496 4.34848 23.2582 3.44753 24.6933 3.44753C25.1125 3.44753 25.5242 3.52185 25.9156 3.66803C26.3534 3.83254 26.8446 3.73841 27.1977 3.42267C28.333 2.40581 29.861 1.8457 31.5 1.8457C33.139 1.8457 34.667 2.40581 35.8033 3.42353C36.1562 3.73878 36.6472 3.83242 37.083 3.66877C37.4759 3.52209 37.8877 3.44765 38.3069 3.44765C39.7419 3.44765 41.0506 4.34848 41.563 5.68883C41.7895 6.28216 42.4254 6.61635 43.0414 6.46537C43.312 6.39893 43.5912 6.36534 43.8711 6.36534C45.7932 6.36534 47.357 7.92902 47.357 9.85372C47.357 10.3274 47.6174 10.7575 48.0377 10.9765C51.0499 12.5418 52.9212 15.6203 52.9212 19.0109C52.9212 21.8878 51.5299 24.6217 49.2042 26.3207C48.8921 26.5459 48.6976 26.9112 48.6845 27.2892C48.6303 28.5118 47.929 29.6304 46.8541 30.209C46.0678 30.6326 45.1595 30.7376 44.2935 30.5038C43.9275 30.406 43.5412 30.4769 43.2339 30.6975C42.9277 30.9174 42.7382 31.259 42.7137 31.637C42.6586 32.5209 42.2666 33.3466 41.6377 33.9469C39.769 32.4909 37.446 31.6698 35.0239 31.6698H27.9758C25.4847 31.6698 23.1889 32.5215 21.3639 33.9488C20.7339 33.3482 20.3411 32.5215 20.286 31.6354C20.2619 31.2593 20.0724 30.9176 19.7662 30.6977C19.4586 30.4769 19.0724 30.4061 18.7037 30.5046C17.8403 30.7374 16.9321 30.6325 16.1455 30.2089C15.0709 29.6305 14.3697 28.5118 14.3158 27.297C14.3019 26.9094 14.1147 26.5554 13.7998 26.3239C11.4699 24.6225 10.0788 21.8888 10.0788 19.0107C10.0788 17.6706 10.3641 16.382 10.9268 15.1804C11.143 14.7189 10.944 14.1695 10.4825 13.9533C10.0212 13.7374 9.47165 13.936 9.25534 14.3976C8.57698 15.846 8.23306 17.398 8.23306 19.0106C8.23306 22.3852 9.82074 25.5945 12.4915 27.6494C12.663 29.4077 13.7091 30.9934 15.2705 31.8337C16.2766 32.3756 17.4132 32.5769 18.5286 32.4206C18.7315 33.4787 19.2522 34.4518 20.0106 35.2067C18.2792 37.1161 17.2229 39.6484 17.2229 42.4229V50.0749C17.0187 50.4991 16.8967 50.9702 16.8786 51.47C16.8434 52.4423 17.1955 53.3633 17.8705 54.0629C18.5455 54.7629 19.4525 55.1484 20.4241 55.1484H21.6478C22.1476 57.3398 23.389 59.3289 25.1459 60.7516C26.9362 62.2015 29.1929 63 31.5 63C33.8061 63 36.0628 62.2015 37.8541 60.7517C39.609 59.3314 40.8508 57.343 41.3535 55.1485H42.5761C43.5476 55.1485 44.4544 54.7634 45.1292 54.0641C46.1737 52.9815 46.4074 51.3935 45.7772 50.096V42.4229C45.7772 41.7988 45.7237 41.1757 45.6183 40.5711C45.5305 40.0691 45.0523 39.7329 44.5505 39.8206C44.0483 39.9083 43.7123 40.3863 43.7999 40.8884C43.8872 41.3884 43.9314 41.9047 43.9314 42.4229V48.3455C43.494 48.1585 43.0144 48.0537 42.5135 48.0537H41.6069V47.5521C41.6069 45.6904 40.0505 44.1247 38.0983 44.2335C33.5109 44.4924 28.1788 42.6971 23.5678 40.9077C23.0762 40.7169 22.5234 40.7811 22.0885 41.0787C21.6539 41.3762 21.3944 41.8683 21.3944 42.3949V48.0537H20.4868C19.9828 48.0537 19.5038 48.1543 19.0687 48.3353V42.4229C19.0687 37.5113 23.0645 33.5155 27.9761 33.5155H35.0242C37.918 33.5155 40.6419 34.9294 42.311 37.298C42.6046 37.7145 43.1801 37.8144 43.597 37.5208C44.0136 37.2272 44.1133 36.6515 43.8198 36.2348C43.5641 35.872 43.2876 35.5279 42.9931 35.2033C43.7499 34.4487 44.2694 33.4767 44.4717 32.4206C45.5886 32.5768 46.7242 32.3758 47.7295 31.8341C49.289 30.9948 50.3344 29.4124 50.5084 27.6495C53.1804 25.5918 54.7672 22.3832 54.7672 19.0107C54.7669 15.0432 52.6392 11.4307 49.1914 9.50193ZM20.4867 49.8993H22.3171C22.8268 49.8993 23.24 49.4863 23.24 48.9765V42.7598C27.957 44.5758 33.3784 46.3467 38.2019 46.0763C38.6099 46.0532 39.0003 46.1957 39.2983 46.4773C39.5967 46.7594 39.7611 47.1411 39.7611 47.552V48.9765C39.7611 49.4863 40.1742 49.8993 40.684 49.8993H42.5134C43.4544 49.8993 44.2451 50.6343 44.2769 51.5372C44.3114 52.5138 43.5307 53.3027 42.5759 53.3027H41.3241C40.4707 53.3027 39.7446 53.8851 39.5586 54.7169C39.1514 56.5169 38.1337 58.1506 36.6927 59.3168C35.2289 60.5018 33.3848 61.1543 31.5 61.1543C29.587 61.1543 27.7915 60.519 26.3074 59.3172C24.8652 58.1492 23.8477 56.5157 23.443 54.7191C23.2565 53.8852 22.5304 53.3027 21.677 53.3027H20.4239C19.958 53.3027 19.5229 53.1176 19.1988 52.7817C18.875 52.4459 18.7061 52.0039 18.7229 51.5368C18.7557 50.6339 19.547 49.8993 20.4867 49.8993Z" fill="black"/>
<path d="M18.2059 23.514C18.2122 26.0223 20.2928 28.063 22.8439 28.063H29.6506C30.9099 28.063 31.9343 27.0385 31.9343 25.7791V14.1078C31.9343 12.9368 31.4359 11.8146 30.5668 11.029C29.6983 10.2439 28.5283 9.86173 27.3561 9.97998C25.4365 10.1737 23.8798 11.6706 23.6608 13.6443C21.5253 13.5684 19.7114 15.1168 19.4021 17.1715C19.2627 18.0853 19.4364 19.0747 19.9429 19.9207C18.869 20.7676 18.2023 22.0824 18.2059 23.514ZM21.2406 17.3781C21.4206 16.3993 22.2336 15.6085 23.2634 15.5006C23.7683 15.4456 24.3218 15.5651 24.7962 15.8726L24.16 16.6549C23.8385 17.0504 23.8984 17.6317 24.2937 17.9532C24.6892 18.2747 25.2705 18.2149 25.592 17.8193L26.2282 17.0371C26.9122 16.1959 26.7186 14.9537 25.8253 14.3507C25.7142 14.2757 25.5992 14.2086 25.4824 14.1451C25.4628 12.903 26.417 11.93 27.5419 11.8163C28.2049 11.7485 28.8401 11.9561 29.3292 12.3982C29.8119 12.8347 30.0888 13.4578 30.0888 14.1081V25.7793C30.0888 26.0209 29.8923 26.2175 29.6507 26.2175H22.844C21.308 26.2175 20.0554 25.0028 20.0517 23.5097C20.048 22.0056 21.2701 20.788 22.7664 20.788C23.5529 20.788 24.3001 21.129 24.8167 21.7236C25.1151 22.067 25.5349 22.2453 25.9613 22.2453C26.2705 22.2453 26.5833 22.1514 26.8555 21.9587L27.2652 21.6687C27.6812 21.3742 27.7797 20.7983 27.4852 20.3824C27.1908 19.9662 26.6148 19.8679 26.1988 20.1624L26.0091 20.2966C25.1547 19.4326 23.9888 18.9425 22.7664 18.9425C22.3694 18.9425 21.9799 18.995 21.6047 19.0937C21.2732 18.6102 21.127 18.0007 21.2406 17.3781Z" fill="black"/>
<path d="M43.5843 15.8575C44.2966 15.6905 44.7941 15.0702 44.7941 14.3491V12.0385C44.7941 11.18 44.0957 10.4817 43.2373 10.4817H35.2321C34.3736 10.4817 33.6754 11.1801 33.6754 12.0385V22.1117C33.6754 22.9702 34.3738 23.6685 35.2321 23.6685H36.2376C36.1439 24.0308 36.1159 24.411 36.158 24.7918C36.3264 26.3168 37.6345 27.5392 39.2287 27.5392C39.9902 27.5392 40.7302 27.2604 41.2997 26.7501C41.9548 26.1633 42.3305 25.3226 42.3305 24.4437C42.3305 24.1793 42.2974 23.9193 42.2327 23.6685H43.2373C44.0958 23.6685 44.7941 22.9701 44.7941 22.1117V19.8011C44.7941 19.0801 44.2966 18.4598 43.5844 18.2927C43.0178 18.1597 42.622 17.659 42.622 17.075C42.622 16.4911 43.0177 15.9905 43.5843 15.8575ZM42.9484 14.1188C41.6589 14.519 40.7763 15.7047 40.7763 17.075C40.7763 18.4454 41.6589 19.631 42.9484 20.0312V21.8228H41.2208C40.7695 21.8228 40.3615 22.0723 40.1559 22.4743C39.9506 22.8753 39.9868 23.3513 40.2501 23.7162C40.4037 23.929 40.4848 24.1806 40.4848 24.4437C40.4848 25.1668 39.8607 25.7719 39.0889 25.6859C38.5261 25.6238 38.0547 25.1523 37.9926 24.5893C37.9483 24.1883 38.0914 23.8931 38.2192 23.716C38.4826 23.3513 38.5189 22.8758 38.314 22.4749C38.1082 22.0727 37.7 21.8228 37.2483 21.8228H35.5212V12.3273H42.9485V14.1188H42.9484Z" fill="black"/>
<path d="M27.6817 50.3292C28.1914 50.3292 28.6046 49.9161 28.6046 49.4063V48.8867C28.6046 48.3769 28.1914 47.9639 27.6817 47.9639C27.172 47.9639 26.7589 48.3769 26.7589 48.8867V49.4063C26.7589 49.9161 27.172 50.3292 27.6817 50.3292Z" fill="black"/>
<path d="M35.3192 50.3292C35.829 50.3292 36.2421 49.9161 36.2421 49.4063V48.8867C36.2421 48.3769 35.829 47.9639 35.3192 47.9639C34.8095 47.9639 34.3964 48.3769 34.3964 48.8867V49.4063C34.3964 49.9161 34.8095 50.3292 35.3192 50.3292Z" fill="black"/>
<path d="M29.1599 56.4224C30.7125 56.8597 32.2871 56.86 33.8401 56.4224C34.3307 56.2842 34.6164 55.7744 34.4782 55.284C34.34 54.7933 33.8302 54.5074 33.3398 54.6459C32.1017 54.9944 30.8983 54.9944 29.6604 54.6459C29.1698 54.5079 28.6601 54.7931 28.5219 55.284C28.3836 55.7744 28.6693 56.2842 29.1599 56.4224Z" fill="black"/>
<path d="M59.2489 23.1646C57.4824 23.1646 56.0451 24.6019 56.0451 26.3683C56.0451 28.1349 57.4824 29.5722 59.2489 29.5722C61.0155 29.5722 62.4528 28.1349 62.4528 26.3683C62.4528 24.6017 61.0156 23.1646 59.2489 23.1646ZM59.2489 27.7265C58.5 27.7265 57.8908 27.1173 57.8908 26.3683C57.8908 25.6195 58.5 25.0103 59.2489 25.0103C59.9979 25.0103 60.6071 25.6195 60.6071 26.3683C60.6071 27.1173 59.9979 27.7265 59.2489 27.7265Z" fill="black"/>
<path d="M59.4291 32.274C59.0229 32.1943 58.5816 32.3904 58.3967 32.8263C58.2498 33.1737 58.3365 33.5723 58.596 33.8318C58.8755 34.1034 59.2691 34.1715 59.6013 34.031C60.0166 33.8599 60.2409 33.4184 60.1538 32.9986C60.0763 32.6286 59.7987 32.3506 59.4291 32.274Z" fill="black"/>
<path d="M59.2483 38.8053C58.7389 38.8053 58.3267 39.2175 58.3267 39.7268C58.3267 40.2374 58.739 40.6496 59.2483 40.6496C59.759 40.6496 60.1724 40.2374 60.1724 39.7268C60.1723 39.2175 59.759 38.8053 59.2483 38.8053Z" fill="black"/>
<path d="M59.2483 35.531C58.7389 35.531 58.3267 35.9432 58.3267 36.4539C58.3267 36.9633 58.739 37.3755 59.2483 37.3755C59.759 37.3755 60.1724 36.9631 60.1724 36.4539C60.1723 35.9431 59.759 35.531 59.2483 35.531Z" fill="black"/>
<path d="M59.2483 42.0784C58.7389 42.0784 58.3267 42.4918 58.3267 43.0012C58.3267 43.5106 58.739 43.9241 59.2483 43.9241C59.759 43.9241 60.1724 43.5106 60.1724 43.0012C60.1724 42.4918 59.759 42.0784 59.2483 42.0784Z" fill="black"/>
<path d="M58.8963 45.424C58.5664 45.5529 58.3266 45.8936 58.3266 46.2755C58.3266 46.654 58.5547 46.9867 58.8963 47.1283C59.2722 47.2782 59.6549 47.1744 59.9016 46.9277C60.2576 46.5728 60.2663 45.9881 59.9016 45.6233C59.6477 45.3694 59.247 45.2756 58.8963 45.424Z" fill="black"/>
<path d="M56.0699 47.1984C56.5796 47.1984 56.9927 46.7852 56.9927 46.2755C56.9927 45.7658 56.5796 45.3527 56.0699 45.3527C55.5602 45.3527 55.147 45.7658 55.147 46.2755C55.147 46.7852 55.5602 47.1984 56.0699 47.1984Z" fill="black"/>
<path d="M52.8905 47.1984C53.4001 47.1984 53.8133 46.7852 53.8133 46.2755C53.8133 45.7658 53.4001 45.3527 52.8905 45.3527C52.3808 45.3527 51.9676 45.7658 51.9676 46.2755C51.9676 46.7852 52.3808 47.1984 52.8905 47.1984Z" fill="black"/>
<path d="M49.8917 45.371C49.58 45.306 49.2579 45.4196 49.0599 45.6232C48.8111 45.8703 48.7104 46.2576 48.8593 46.6286C48.9995 46.9611 49.3246 47.1983 49.712 47.1983C50.1576 47.1983 50.5377 46.8762 50.6164 46.4564C50.7194 45.9546 50.3819 45.4626 49.8917 45.371Z" fill="black"/>
<path d="M6.95484 26.3683C6.95484 24.6019 5.51766 23.1646 3.75095 23.1646C1.98424 23.1646 0.54718 24.6017 0.54718 26.3683C0.54718 28.1349 1.98437 29.5722 3.75107 29.5722C5.51778 29.5722 6.95484 28.1349 6.95484 26.3683ZM2.39288 26.3683C2.39288 25.6195 3.00221 25.0103 3.75107 25.0103C4.49994 25.0103 5.10926 25.6195 5.10926 26.3683C5.10926 27.1173 4.49994 27.7265 3.75107 27.7265C3.00221 27.7265 2.39288 27.1173 2.39288 26.3683Z" fill="black"/>
<path d="M3.93122 32.274C3.44654 32.1767 2.95386 32.4817 2.84594 32.9987C2.78565 33.321 2.8927 33.6247 3.09819 33.8319C3.39904 34.1305 3.87954 34.1986 4.26344 33.9463C4.57783 33.739 4.72893 33.349 4.65596 32.9989C4.58127 32.6408 4.31328 32.3532 3.93122 32.274Z" fill="black"/>
<path d="M3.75046 42.0784C3.24104 42.0784 2.82761 42.4918 2.82761 43.0012C2.82761 43.5106 3.24104 43.9241 3.75046 43.9241C4.2611 43.9241 4.67454 43.5106 4.67454 43.0012C4.67454 42.4918 4.2611 42.0784 3.75046 42.0784Z" fill="black"/>
<path d="M3.75046 35.531C3.24104 35.531 2.82761 35.9432 2.82761 36.4539C2.82761 36.9633 3.24104 37.3755 3.75046 37.3755C4.2611 37.3755 4.67454 36.9631 4.67454 36.4539C4.67454 35.9431 4.2611 35.531 3.75046 35.531Z" fill="black"/>
<path d="M3.75046 38.8053C3.24104 38.8053 2.82761 39.2175 2.82761 39.7268C2.82761 40.2374 3.24104 40.6496 3.75046 40.6496C4.2611 40.6496 4.67454 40.2374 4.67454 39.7268C4.67454 39.2175 4.2611 38.8053 3.75046 38.8053Z" fill="black"/>
<path d="M3.09818 45.6232C2.83548 45.8861 2.75611 46.291 2.89885 46.6286C3.05069 46.9877 3.38919 47.1983 3.75156 47.1983C4.17583 47.1983 4.56219 46.9056 4.65595 46.4563C4.71612 46.1614 4.62101 45.8407 4.40371 45.6232C4.04773 45.2673 3.46203 45.2599 3.09818 45.6232Z" fill="black"/>
<path d="M6.92999 47.1984C7.43967 47.1984 7.85284 46.7852 7.85284 46.2755C7.85284 45.7658 7.43967 45.3527 6.92999 45.3527C6.42032 45.3527 6.00714 45.7658 6.00714 46.2755C6.00714 46.7852 6.42032 47.1984 6.92999 47.1984Z" fill="black"/>
<path d="M10.1094 45.3527C9.59877 45.3527 9.18533 45.766 9.18533 46.2755C9.18533 46.7849 9.59877 47.1984 10.1094 47.1984C10.6188 47.1984 11.0323 46.7849 11.0323 46.2755C11.0323 45.766 10.619 45.3527 10.1094 45.3527Z" fill="black"/>
<path d="M12.9345 45.424C12.6056 45.5554 12.3648 45.8921 12.3648 46.2755C12.3648 46.8509 12.8941 47.2965 13.4686 47.1799C13.7383 47.1295 14.008 46.9418 14.1404 46.6288C14.289 46.2563 14.188 45.8704 13.9411 45.6234C13.6917 45.3742 13.2999 45.2728 12.9345 45.424Z" fill="black"/>
</g>
<defs>
<clipPath id="clip0">
<rect width="63" height="63" fill="white"/>
</clipPath>
</defs>
</svg>
