<svg width="63" height="63" viewBox="0 0 63 63" fill="none" xmlns="http://www.w3.org/2000/svg">
<g clip-path="url(#clip0)">
<path d="M60.2178 22.6982C60.2178 15.2759 56.8543 9.20173 50.4909 5.13262C45.3902 1.87071 38.3782 0 31.2528 0C25.3463 0 19.8394 1.6005 15.7464 4.50655C15.3308 4.80162 15.2331 5.37773 15.5282 5.79327C15.8233 6.20881 16.3994 6.30639 16.8151 6.01144C20.5984 3.32515 25.7259 1.84574 31.2528 1.84574C38.0351 1.84574 44.6848 3.6105 49.4965 6.68759C55.3029 10.4007 58.372 15.9371 58.372 22.6982C58.372 31.078 57.2705 34.5111 49.9782 41.1106C47.8816 43.008 48.1238 47.3301 50.7184 54.3239C50.8745 54.7449 50.8462 55.1952 50.6388 55.5922C50.4323 55.9873 50.0807 56.2663 49.649 56.3775L46.6509 57.1502C46.1573 57.2775 45.8604 57.7807 45.9875 58.2743C46.0948 58.6906 46.4696 58.9671 46.8805 58.9671C46.9568 58.9671 47.0343 58.9576 47.1114 58.9377L50.1095 58.1649C51.0402 57.9251 51.8293 57.299 52.2745 56.4474C52.7205 55.5938 52.7841 54.586 52.4488 53.6821C50.2747 47.8214 49.8255 43.7381 51.2167 42.4791C58.9169 35.5106 60.2178 31.4281 60.2178 22.6982Z" fill="#fff"/>
<path d="M42.4779 58.2259L31.3061 61.1056C30.5542 61.3 29.7676 60.9039 29.476 60.1855C28.3814 57.4897 25.8192 51.1758 19.3009 52.0594C18.8437 52.1213 18.3878 52.1853 17.9384 52.2484C15.7163 52.5607 13.4188 52.8835 12.3847 52.7142C10.1947 52.3556 8.99249 51.4486 8.60131 49.8597C8.35005 48.8509 8.66136 48.1151 9.08932 47.42C9.57168 46.5577 9.16931 45.5388 8.51998 45.0894C8.08561 44.7887 7.60142 44.5932 7.24851 44.4771C7.23928 44.2776 7.33354 43.9747 7.81097 43.6306C8.01338 43.4845 8.148 43.263 8.1843 43.0161C8.22048 42.7691 8.15526 42.5181 8.00342 42.3202C8.00969 42.2629 7.15918 41.4092 6.23668 40.6118C7.00131 40.0685 8.46054 38.8383 8.27105 37.478C8.19181 36.9089 7.80088 36.1393 6.38914 35.7051C4.84364 35.2299 4.62954 34.6321 4.62818 34.057C4.62695 33.4704 4.97506 33.1075 5.80859 32.4658C7.12595 31.4517 8.63121 30.1325 9.80781 28.0382C10.2005 27.339 10.2473 26.4853 9.93332 25.7541C9.74714 25.3209 9.48862 24.9114 9.23846 24.5154C8.8543 23.9069 8.45697 23.2776 8.54939 22.8809C8.59971 22.6649 8.73581 22.3773 8.89331 22.0443C9.27525 21.2371 9.79821 20.1319 9.90785 18.452C10.1544 14.669 11.4703 11.3893 13.8186 8.70396C14.1541 8.32029 14.1151 7.73729 13.7315 7.40173C13.3478 7.06605 12.7648 7.10518 12.4292 7.48885C9.80768 10.4866 8.33971 14.1347 8.06605 18.3318C7.9793 19.6606 7.57853 20.5077 7.22501 21.255C7.03059 21.6658 6.847 22.0539 6.75188 22.4623C6.4845 23.6106 7.11857 24.6148 7.67795 25.5008C7.89956 25.8518 8.10899 26.1834 8.2377 26.4828C8.32642 26.6894 8.3119 26.9328 8.19882 27.1341C7.38153 28.5888 6.36293 29.7099 4.68282 31.0033C3.92471 31.5869 2.77912 32.4688 2.78257 34.061C2.78626 35.6985 3.81717 36.8452 5.84674 37.4693C6.24062 37.5903 6.39209 37.7083 6.43885 37.7535C6.38225 38.0624 5.67115 38.7847 4.95771 39.25C4.85718 39.3152 4.77018 39.3995 4.70177 39.498C4.29164 40.0885 4.09095 41.2935 5.21894 42.1929C5.52644 42.438 5.77783 42.6617 5.97569 42.8498C5.1424 43.9226 5.35737 45.115 5.79887 45.762C5.93139 45.9563 6.13615 46.0931 6.36576 46.1438C6.53864 46.1819 7.05988 46.3342 7.44034 46.5872C7.03957 47.2897 6.37548 48.4677 6.80923 50.3009C7.383 52.6316 9.1586 54.0565 12.0868 54.5358C13.3974 54.7503 15.621 54.438 18.1953 54.0764C18.6417 54.0137 19.0948 53.9502 19.549 53.8885C24.029 53.2827 26.1461 56.89 27.766 60.88C28.2948 62.1828 29.5674 63.0002 30.9236 63.0001C31.2031 63.0001 31.4863 62.9654 31.767 62.893L42.9389 60.0133C43.4324 59.8861 43.7293 59.3828 43.6022 58.8893C43.4748 58.3956 42.9714 58.0987 42.4779 58.2259Z" fill="#fff"/>
<path d="M55.7367 21.7378C56.7079 18.1128 54.6946 14.3787 51.2062 13.1556C50.6123 10.6041 48.6626 8.56665 46.1014 7.8804C44.3734 7.41737 42.5612 7.61856 40.9944 8.42465C39.89 6.68314 38.1719 5.41019 36.156 4.87001C33.5189 4.16346 30.7079 4.81402 28.6504 6.56809C28.2207 6.34106 27.7666 6.16289 27.2936 6.03627C25.6401 5.59329 23.9079 5.8117 22.4163 6.65114C21.1103 7.38648 20.1153 8.52604 19.5661 9.9005C16.652 10.3564 14.2446 12.4933 13.4715 15.3786C13.0886 16.808 13.1313 18.2799 13.5915 19.6692C13.0828 20.3471 12.7135 21.1082 12.4911 21.9384C12.1483 23.2177 12.191 24.5547 12.6141 25.8045C12.7777 26.2873 13.3017 26.5464 13.7842 26.3825C14.2669 26.2191 14.5257 25.6952 14.3623 25.2125C14.0564 24.309 14.0259 23.3421 14.2738 22.4161C14.4707 21.6817 14.8258 21.0227 15.3297 20.4569C15.5652 20.1924 15.6286 19.8165 15.493 19.4895C15.0111 18.3281 14.9287 17.0718 15.2544 15.8563C15.8781 13.5286 17.9119 11.8466 20.315 11.6709C20.6988 11.6428 21.0249 11.3797 21.1332 11.0104C21.8406 8.60061 24.3902 7.16943 26.8158 7.81888C27.3291 7.95645 27.8108 8.17818 28.248 8.47793C28.6171 8.73141 29.1154 8.68293 29.429 8.363C31.0501 6.70947 33.4445 6.05436 35.6782 6.65262C37.4998 7.14076 39.0085 8.39942 39.8176 10.1059C39.9345 10.3525 40.1545 10.5346 40.4185 10.6035C40.6828 10.6728 40.9638 10.621 41.186 10.4627C42.4776 9.54489 44.0952 9.25351 45.6236 9.66289C47.6661 10.2102 49.184 11.9165 49.4911 14.0098C49.545 14.378 49.8149 14.6779 50.1755 14.77L50.2193 14.7806C53.0334 15.5389 54.7083 18.4438 53.9538 21.2598C53.6274 22.4783 52.8737 23.542 51.8316 24.2548C51.4427 24.5208 51.3166 25.0369 51.5391 25.4522C52.3169 26.9044 52.5103 28.5807 52.0838 30.1721C51.1619 33.6125 47.613 35.6612 44.1724 34.7398C43.1502 34.4659 42.2264 33.9547 41.4616 33.2467C41.7263 32.9016 41.9574 32.5234 42.1482 32.1154C42.3641 31.6537 42.1648 31.1043 41.7032 30.8885C41.2416 30.6727 40.6921 30.8719 40.4762 31.3335C39.6035 33.2 37.5232 34.1671 35.5304 33.6331C34.9312 33.4726 34.3864 33.1902 33.9112 32.794C33.5686 32.5083 33.0708 32.5084 32.7286 32.7944C32.0414 33.3683 31.1163 33.5729 30.2542 33.3422C29.5658 33.1578 28.9835 32.7194 28.6143 32.1081C28.4244 31.7936 28.0661 31.6221 27.702 31.6705C27.2116 31.7358 26.7187 31.7038 26.237 31.5748C24.358 31.0713 23.1658 29.1807 23.5228 27.2703C23.6067 26.8215 23.3497 26.3787 22.9182 26.229C21.9869 25.9056 21.4226 24.9629 21.5764 23.9874C21.6778 23.3441 22.0672 22.8013 22.6451 22.4983C23.0964 22.2614 23.2703 21.7035 23.0334 21.2523C22.7967 20.801 22.2388 20.6272 21.7874 20.8638C20.704 21.4324 19.9435 22.4926 19.7532 23.7C19.5004 25.3034 20.2668 26.8608 21.622 27.6544C21.6214 27.6651 21.6216 27.6758 21.6211 27.6866C20.4634 28.4617 19.0541 28.6999 17.6919 28.3352C17.3447 28.2421 17.0093 28.1115 16.6948 27.9469C16.2433 27.7102 15.6855 27.8846 15.449 28.3362C15.2125 28.7877 15.3869 29.3454 15.8385 29.5818C16.273 29.8095 16.7356 29.9897 17.2139 30.1179C17.7786 30.2692 18.3558 30.3433 18.9305 30.3433C19.9525 30.3433 20.9663 30.1085 21.8866 29.658C22.4552 31.413 23.8753 32.853 25.7592 33.3576C26.2893 33.4997 26.8287 33.5627 27.3705 33.5468C27.5838 33.8159 27.8262 34.0566 28.0907 34.2693L30.3049 41.9011C30.5928 42.8933 31.3915 43.6757 32.3893 43.9431L35.438 44.76C35.5971 44.8027 35.7582 44.8237 35.9176 44.8237C36.3758 44.8235 36.8207 44.6514 37.1665 44.3285C37.6327 43.8932 37.8378 43.2595 37.7151 42.6336L36.9767 38.8639C37.2931 38.9598 37.5915 39.0192 38.1874 39.0582C38.9622 40.0241 40.0259 40.7216 41.2309 41.0445C41.7358 41.1798 42.2427 41.2443 42.7422 41.2443C45.3224 41.244 47.6902 39.5198 48.389 36.9117C48.4374 36.7313 48.4761 36.5485 48.5072 36.3647C51.0452 35.501 53.1224 33.4283 53.8668 30.6501C54.3467 28.859 54.2159 26.9843 53.5053 25.2925C54.5839 24.362 55.3652 23.1242 55.7367 21.7378ZM32.8669 42.1606C32.4889 42.0594 32.1863 41.7629 32.0773 41.3871L30.2912 35.2309C31.3346 35.3851 32.4007 35.1753 33.3064 34.639C33.6441 34.8593 34.0016 35.0441 34.3767 35.1927L35.9007 42.9735L32.8669 42.1606ZM41.7086 39.2617C40.7674 39.0093 39.952 38.423 39.4131 37.6104C39.2252 37.3269 38.8964 37.171 38.5579 37.2016C38.2286 37.2328 37.8984 37.2043 37.5762 37.1181C37.1911 37.0149 36.8341 36.8297 36.5291 36.5795L36.3404 35.6161C36.4395 35.6209 36.5387 35.6257 36.6374 35.6257C37.8968 35.6257 39.1131 35.2331 40.1254 34.5247C41.1251 35.4761 42.3434 36.1609 43.6946 36.5229C44.412 36.7152 45.1325 36.8069 45.8423 36.8069C46.0612 36.8069 46.279 36.7975 46.4953 36.7803C45.7907 38.6987 43.7202 39.8012 41.7086 39.2617Z" fill="#fff"/>
<path d="M36.9316 17.4423C35.6288 16.6464 33.9215 17.059 33.1258 18.3616C32.7403 18.9927 32.6235 19.7361 32.7971 20.455C32.9707 21.1738 33.4139 21.782 34.0449 22.1675C34.4852 22.4365 34.9801 22.5747 35.4832 22.5747C35.7013 22.5747 35.9209 22.5487 36.1382 22.4962C36.857 22.3227 37.4653 21.8795 37.8508 21.2484C38.6468 19.9457 38.2344 18.2383 36.9316 17.4423ZM36.2759 20.286C36.1474 20.4964 35.9447 20.6441 35.7051 20.7019C35.4653 20.7601 35.2177 20.7209 35.0073 20.5923C34.797 20.4638 34.6492 20.2612 34.5914 20.0215C34.5334 19.7819 34.5724 19.534 34.7009 19.3237C34.8748 19.0392 35.1788 18.8821 35.49 18.8821C35.6539 18.8821 35.8198 18.9256 35.9695 19.0173C36.4036 19.2827 36.5411 19.8518 36.2759 20.286Z" fill="#fff"/>
<path d="M35.176 13.387C33.0264 13.4853 31.0742 14.639 29.9535 16.4732C28.869 18.2486 28.7074 20.4531 29.5214 22.3702C29.6705 22.7216 30.0121 22.9326 30.3713 22.9326C30.4916 22.9326 30.6138 22.909 30.7316 22.8589C31.2008 22.6598 31.4195 22.118 31.2203 21.6489C30.6387 20.2787 30.7539 18.7036 31.5286 17.4354C32.329 16.1252 33.7241 15.301 35.2603 15.2307C35.7694 15.2075 36.1633 14.7758 36.14 14.2667C36.1167 13.7575 35.6852 13.3636 35.176 13.387Z" fill="#fff"/>
<path d="M35.8782 24.4373C35.3706 24.4833 34.9963 24.9321 35.0425 25.4397C35.0859 25.9191 35.4884 26.2792 35.9604 26.2792C35.9883 26.2792 36.0165 26.278 36.0448 26.2755C38.0736 26.0917 39.9182 24.9452 40.9791 23.2089C42.0798 21.4071 42.2297 19.1758 41.3802 17.2402C41.1753 16.7734 40.6312 16.5613 40.1642 16.7659C39.6975 16.9708 39.4853 17.5152 39.69 17.9819C40.2971 19.3653 40.1901 20.9596 39.4039 22.2467C38.6349 23.5055 37.3497 24.304 35.8782 24.4373Z" fill="#fff"/>
<path d="M35.0114 9.69733C31.6333 9.85187 28.5652 11.6649 26.8043 14.5471C25.1 17.3371 24.8461 20.8014 26.1253 23.8142C26.2745 24.1655 26.6161 24.3766 26.9752 24.3766C27.0956 24.3766 27.2178 24.3529 27.3355 24.3029C27.8047 24.1037 28.0235 23.562 27.8243 23.0927C26.7774 20.6269 26.9848 17.792 28.3794 15.5092C29.8201 13.1509 32.3309 11.6675 35.0957 11.541C35.6049 11.5177 35.9988 11.0861 35.9754 10.5769C35.9523 10.0677 35.5191 9.67653 35.0114 9.69733Z" fill="#fff"/>
<path d="M44.5777 21.5913C44.6059 21.5939 44.6337 21.595 44.6614 21.595C45.1338 21.595 45.5364 21.2342 45.5794 20.7547C45.7325 19.0515 45.4492 17.3217 44.7604 15.7522C44.5556 15.2855 44.0112 15.0734 43.5445 15.278C43.0778 15.4829 42.8655 16.0274 43.0703 16.494C43.6343 17.7793 43.8664 19.1956 43.7411 20.5897C43.6955 21.0972 44.07 21.5458 44.5777 21.5913Z" fill="#fff"/>
<path d="M42.5011 24.2566C41.1115 26.4709 38.8183 27.8763 36.2094 28.1126C35.7018 28.1586 35.3275 28.6074 35.3736 29.1149C35.4171 29.5943 35.8195 29.9545 36.2916 29.9545C36.3195 29.9545 36.3477 29.9533 36.3759 29.9508C39.5634 29.662 42.3659 27.9441 44.0645 25.2375C44.3354 24.8059 44.2051 24.2363 43.7733 23.9653C43.3415 23.6945 42.7721 23.8248 42.5011 24.2566Z" fill="#fff"/>
</g>
<defs>
<clipPath id="clip0">
<rect width="63" height="63" fill="white"/>
</clipPath>
</defs>
</svg>
