<svg width="63" height="63" viewBox="0 0 63 63" fill="none" xmlns="http://www.w3.org/2000/svg">
<path d="M58.8589 7.27063C56.7242 7.27063 54.9529 8.86986 54.7397 10.9925L53.9728 18.5658L53.2059 26.1391C52.4669 26.2966 51.7884 26.6552 51.2626 27.1811L39.0236 38.5744C37.3396 40.1082 36.3631 42.2962 36.3461 44.5836V58.1552H50.8846V51.768C50.8846 50.7818 51.2989 49.8223 52.0501 49.1099L61.2457 39.8295C62.3772 38.6858 63 37.1714 63 35.5649V11.4117C63 9.12913 61.1415 7.27063 58.8589 7.27063ZM60.5769 35.5649C60.5769 36.5293 60.2037 37.4379 59.5229 38.1261L50.3564 47.3774C49.1521 48.5162 48.4615 50.1155 48.4615 51.768V55.7322H38.7692V44.5981C38.7813 42.9916 39.4671 41.453 40.6665 40.3626L52.9442 28.9281C53.2737 28.5986 53.7244 28.4362 54.2018 28.4847C54.4659 28.5089 54.8463 28.6034 55.171 28.9281C55.469 29.2261 55.6338 29.6235 55.6338 30.0427C55.6338 30.4619 55.4666 30.8593 55.2122 31.1161L45.7598 39.689L47.3881 41.4821L56.8841 32.868C57.6401 32.112 58.0569 31.1089 58.0569 30.0403C58.0569 28.9717 57.6425 27.9686 56.8865 27.215C56.5182 26.8418 56.0894 26.5559 55.6193 26.3596L56.3838 18.7996L57.1482 11.2396C57.2379 10.3576 57.9745 9.69371 58.8589 9.69371C59.8064 9.69371 60.5769 10.4642 60.5769 11.4117V35.5649Z" fill="#fff"/>
<path d="M23.9763 38.5744L11.7374 27.1811C11.2116 26.6552 10.5331 26.2942 9.79408 26.1391L8.26027 10.9925C8.04704 8.86986 6.27577 7.27063 4.14104 7.27063C1.8585 7.27063 0 9.12913 0 11.4117V35.5649C0 37.1714 0.622731 38.6858 1.75431 39.8271L10.9499 49.1075C11.701 49.8199 12.1154 50.7818 12.1154 51.768V58.1552H26.6538V44.5836C26.6393 42.2962 25.6604 40.1106 23.9763 38.5744ZM24.2308 55.7322H14.5385V51.768C14.5385 50.1179 13.8479 48.5162 12.6436 47.3774L3.47712 38.1261C2.79623 37.4379 2.42308 36.5293 2.42308 35.5649V11.4117C2.42308 10.4642 3.19362 9.69371 4.14104 9.69371C5.02546 9.69371 5.76208 10.3576 5.85173 11.2348L7.38069 26.3548C6.91062 26.5535 6.48173 26.8394 6.11342 27.2101C5.35985 27.9637 4.94308 28.9669 4.94308 30.0354C4.94308 31.104 5.35985 32.1072 6.11585 32.8632L15.6119 41.4772L17.2402 39.6841L7.78777 31.1113C7.53092 30.8544 7.36615 30.4595 7.36615 30.0379C7.36615 29.6162 7.53092 29.2213 7.82896 28.9232C8.15123 28.5986 8.53408 28.5041 8.79819 28.4798C9.27796 28.4338 9.72623 28.5937 10.0558 28.9232L22.3335 40.3577C23.5329 41.4481 24.2187 42.9868 24.2308 44.5933V55.7322Z" fill="#fff"/>
<path d="M24.5 26C13.5165 17.9177 14.3507 12.4747 18.5513 8.95167C23.6907 4.64115 29.673 9.5043 31.6072 12.4747C33.196 9.5043 40.5688 4.18522 45.0776 8.95167C52.3309 16.6194 39.0677 25.5306 31.6072 32.7839L28 29.5" stroke="#fff" stroke-width="2.5" stroke-linecap="round"/>
</svg>
