<svg width="63" height="63" viewBox="0 0 63 63" fill="none" xmlns="http://www.w3.org/2000/svg">
<g clip-path="url(#clip0)">
<path d="M24.4441 20.6627H28.2254V24.4439C28.2254 24.9536 28.6385 25.3668 29.1482 25.3668H33.8523C34.3619 25.3668 34.7751 24.9536 34.7751 24.4439V20.6627H38.5564C39.066 20.6627 39.4792 20.2495 39.4792 19.7398V15.0357C39.4792 14.5261 39.066 14.1129 38.5564 14.1129H34.7751V10.3317C34.7751 9.822 34.3619 9.40881 33.8523 9.40881H29.1482C28.6385 9.40881 28.2254 9.822 28.2254 10.3317V14.1129H24.4441C23.9345 14.1129 23.5213 14.5261 23.5213 15.0357V19.7398C23.5213 20.2495 23.9345 20.6627 24.4441 20.6627ZM25.367 15.9586H29.1482C29.6579 15.9586 30.0711 15.5454 30.0711 15.0357V11.2545H32.9294V15.0357C32.9294 15.5454 33.3426 15.9586 33.8523 15.9586H37.6335V18.817H33.8523C33.3426 18.817 32.9294 19.2302 32.9294 19.7398V23.5211H30.0711V19.7398C30.0711 19.2302 29.6579 18.817 29.1482 18.817H25.367V15.9586Z" fill="black"/>
<path d="M29.1482 28.2251H19.7401C19.2304 28.2251 18.8172 28.6383 18.8172 29.1479V38.5561C18.8172 39.0658 19.2304 39.479 19.7401 39.479H29.1482C29.6579 39.479 30.0711 39.0658 30.0711 38.5561V29.1479C30.0711 28.6383 29.6579 28.2251 29.1482 28.2251ZM28.2254 37.6333H20.6629V30.0708H28.2254V37.6333Z" fill="black"/>
<path d="M43.2605 28.2251H33.8523C33.3426 28.2251 32.9294 28.6383 32.9294 29.1479V38.5561C32.9294 39.0658 33.3426 39.479 33.8523 39.479H43.2605C43.7701 39.479 44.1833 39.0658 44.1833 38.5561V29.1479C44.1833 28.6383 43.7701 28.2251 43.2605 28.2251ZM42.3376 37.6333H34.7751V30.0708H42.3376V37.6333Z" fill="black"/>
<path d="M52.6686 39.479H57.3727C57.8824 39.479 58.2956 39.0658 58.2956 38.5561V29.1479C58.2956 28.6383 57.8824 28.2251 57.3727 28.2251H52.6686C52.159 28.2251 51.7458 28.6383 51.7458 29.1479V38.5561C51.7458 39.0658 52.159 39.479 52.6686 39.479ZM53.5915 30.0708H56.4499V37.6333H53.5915V30.0708Z" fill="black"/>
<path d="M52.6686 53.5914H57.3727C57.8824 53.5914 58.2956 53.1782 58.2956 52.6685V43.2604C58.2956 42.7507 57.8824 42.3375 57.3727 42.3375H52.6686C52.159 42.3375 51.7458 42.7507 51.7458 43.2604V52.6685C51.7458 53.1782 52.159 53.5914 52.6686 53.5914ZM53.5915 44.1831H56.4499V51.7456H53.5915V44.1831Z" fill="black"/>
<path d="M62.0776 18.8169H48.8887V6.54979H50.3172C50.8269 6.54979 51.2401 6.13659 51.2401 5.62693V0.922852C51.2401 0.413191 50.8269 0 50.3172 0H12.6846C12.1749 0 11.7617 0.413191 11.7617 0.922852V5.62693C11.7617 6.13659 12.1749 6.54979 12.6846 6.54979H14.1132V18.8169H0.924397C0.414737 18.8169 0.00154602 19.2301 0.00154602 19.7398L0.000930786 62.0771C0.000930786 62.5868 0.414122 63 0.923782 63L62.0776 62.9995C62.5872 62.9995 63.0004 62.5863 63.0004 62.0767V19.7398C63.0004 19.2301 62.5872 18.8169 62.0776 18.8169ZM61.1547 20.6626V23.521H48.8887V20.6626H61.1547ZM1.84725 20.6626H14.1132V23.5204H1.84725V20.6626ZM37.6342 61.1538H32.4238V55.6184C32.4238 55.1088 32.0106 54.6956 31.5009 54.6956C30.9913 54.6956 30.5781 55.1088 30.5781 55.6184V61.1538H25.3677V48.8873H30.5781V51.5974C30.5781 52.107 30.9913 52.5202 31.5009 52.5202C32.0106 52.5202 32.4238 52.107 32.4238 51.5974V48.8873H37.6342V61.1538ZM23.0156 47.0414V44.1831H39.9862V47.0414H23.0156ZM39.4799 48.8871H40.9091C41.4187 48.8871 41.8319 48.4739 41.8319 47.9643V43.2602C41.8319 42.7505 41.4187 42.3374 40.9091 42.3374H22.0928C21.5831 42.3374 21.1699 42.7505 21.1699 43.2602V47.9643C21.1699 48.4739 21.5831 48.8871 22.0928 48.8871H23.522V61.1543H15.9589V35.862C15.9589 35.3524 15.5457 34.9392 15.036 34.9392C14.5264 34.9392 14.1132 35.3524 14.1132 35.862V61.1543H1.84663V25.3667H14.1132V31.8408C14.1132 32.3505 14.5264 32.7637 15.036 32.7637C15.5457 32.7637 15.9589 32.3505 15.9589 31.8408V6.54979H38.8985C39.4082 6.54979 39.8214 6.13659 39.8214 5.62693C39.8214 5.11727 39.4082 4.70408 38.8985 4.70408H13.6075V1.8457H49.3944V4.70408H42.9197C42.41 4.70408 41.9968 5.11727 41.9968 5.62693C41.9968 6.13659 42.41 6.54979 42.9197 6.54979H47.043L47.0424 61.1543H39.4799V48.8871ZM61.1547 61.1538H48.8887V25.3667H61.1547V61.1538Z" fill="black"/>
<path d="M10.3319 28.2251H5.62779C5.11813 28.2251 4.70494 28.6383 4.70494 29.1479V38.5561C4.70494 39.0658 5.11813 39.479 5.62779 39.479H10.3319C10.8415 39.479 11.2547 39.0658 11.2547 38.5561V29.1479C11.2547 28.6383 10.8415 28.2251 10.3319 28.2251ZM9.40902 37.6333H6.55064V30.0708H9.40902V37.6333Z" fill="black"/>
<path d="M10.3319 42.3374H5.62779C5.11813 42.3374 4.70494 42.7506 4.70494 43.2603V52.6684C4.70494 53.1781 5.11813 53.5913 5.62779 53.5913H10.3319C10.8415 53.5913 11.2547 53.1781 11.2547 52.6684V43.2603C11.2547 42.7506 10.8415 42.3374 10.3319 42.3374ZM9.40902 51.7457H6.55064V44.1832H9.40902V51.7457Z" fill="black"/>
</g>
<defs>
<clipPath id="clip0">
<rect width="63" height="63" fill="white"/>
</clipPath>
</defs>
</svg>
