<svg width="17" height="16" viewBox="0 0 17 16" fill="none" xmlns="http://www.w3.org/2000/svg">
<path d="M1 9C0.447715 9 0 8.55228 0 8C0 7.44772 0.447715 7 1 7L1 9ZM16.2071 7.29289C16.5976 7.68342 16.5976 8.31658 16.2071 8.70711L9.84315 15.0711C9.45262 15.4616 8.81946 15.4616 8.42893 15.0711C8.03841 14.6805 8.03841 14.0474 8.42893 13.6569L14.0858 8L8.42893 2.34315C8.03841 1.95262 8.03841 1.31946 8.42893 0.928932C8.81946 0.538408 9.45262 0.538408 9.84315 0.928932L16.2071 7.29289ZM1 7L15.5 7V9L1 9L1 7Z" fill="white"/>
</svg>
