<svg width="44" height="64" viewBox="0 0 44 64" fill="none" xmlns="http://www.w3.org/2000/svg">
<path d="M43.5973 56.6333V62.9334C43.5973 63.5224 43.1197 64 42.5308 64C41.9418 64 41.4642 63.5224 41.4642 62.9334V56.6333C41.4642 51.728 37.4947 47.7582 32.589 47.7584C30.2678 47.7584 28.1618 46.5759 26.9552 44.5951C26.6488 44.0921 26.8081 43.4357 27.3113 43.1294C27.8143 42.8229 28.4705 42.9823 28.777 43.4855C29.5931 44.8254 31.0181 45.6253 32.589 45.6253C38.6731 45.6251 43.5973 50.5487 43.5973 56.6333ZM24.9856 45.9424C25.111 46.5179 24.7461 47.0861 24.1706 47.2115C21.3638 47.823 18.5091 47.2108 16.2362 45.6595C13.9861 48.0707 11.0134 47.7584 11.4114 47.7584C6.50601 47.7582 2.53613 51.7276 2.53613 56.6333V62.9334C2.53613 63.5224 2.05859 64 1.4696 64C0.880613 64 0.403076 63.5224 0.403076 62.9334V56.6333C0.403076 50.5493 5.3263 45.6253 11.4111 45.6253C13.8724 45.6253 15.8677 43.6423 15.8677 41.1803V40.8994C11.2125 38.6734 7.94489 33.9958 7.74571 28.5486C5.82996 28.088 4.40255 26.3733 4.40255 24.3332V18.8042C4.34429 16.0979 4.74611 9.3197 9.68826 4.55579C15.7908 -1.32691 25.5772 -0.953222 32.7734 2.51099C33.4747 2.84895 33.5813 3.79655 32.9988 4.28729C36.6443 5.17651 39.7879 7.41754 41.8075 10.6249C41.9118 10.79 42.1027 11.0493 42.0528 11.463C42.0219 11.7204 41.9452 11.9383 41.7469 12.1396C40.447 13.4578 39.7312 15.2047 39.7312 17.0584V24.3335C39.7312 24.9224 39.2537 25.4 38.6647 25.4C38.0757 25.4 37.5982 24.9224 37.5982 24.3335V17.0584C37.5982 14.9204 38.3286 12.8911 39.6702 11.2609C37.6254 8.33649 34.4351 6.45567 30.8271 6.06932L28.9525 5.86855C27.8564 5.75123 27.6414 4.24116 28.66 3.82188L29.5126 3.47086C18.4092 -0.399961 6.53547 3.90094 6.53547 18.7926V24.3332C6.53547 25.1795 7.02287 25.915 7.73531 26.2844V19.3702C7.73531 15.2537 11.0845 11.9046 15.201 11.9046H28.7992C32.9157 11.9046 36.2649 15.2534 36.2649 19.3698V28.1024C36.2649 37.3777 27.201 44.4229 17.978 41.7077C17.918 42.4687 17.7285 43.203 17.4199 43.8856C19.2141 45.1177 21.4798 45.6147 23.7164 45.1273C24.2919 45.0019 24.8601 45.3668 24.9856 45.9424ZM22.0001 40.1531C28.6896 40.1531 34.1319 34.7109 34.1319 28.0214V19.3698C34.1319 16.4297 31.7396 14.0376 28.7992 14.0376H15.201C12.2606 14.0376 9.86837 16.4298 9.86837 19.3702V28.0214C9.86837 34.7109 15.3106 40.1531 22.0001 40.1531ZM32.7987 58.534H29.5991C29.0101 58.534 28.5326 59.0116 28.5326 59.6006C28.5326 60.1895 29.0101 60.6671 29.5991 60.6671H32.7987C33.3877 60.6671 33.8652 60.1895 33.8652 59.6006C33.8652 59.0116 33.3877 58.534 32.7987 58.534Z" fill="black"/>
</svg>
