<svg width="600" height="600" viewBox="0 0 600 600" fill="none" xmlns="http://www.w3.org/2000/svg">
<ellipse cx="305.366" cy="304" rx="199" ry="198.5" fill="white" fill-opacity="0.2"/>
<path d="M561.621 300C561.621 444.975 444.489 562.5 300 562.5C155.511 562.5 38.3794 444.975 38.3794 300C38.3794 155.025 155.511 37.5 300 37.5C444.489 37.5 561.621 155.025 561.621 300ZM40.2002 300C40.2002 443.966 156.517 560.673 300 560.673C443.483 560.673 559.8 443.966 559.8 300C559.8 156.034 443.483 39.3269 300 39.3269C156.517 39.3269 40.2002 156.034 40.2002 300Z" fill="#0CB0F2"/>
<path opacity="0.08" d="M309.555 459.852C390.838 459.852 456.731 393.959 456.731 312.676C456.731 231.393 390.838 165.5 309.555 165.5C228.272 165.5 162.379 231.393 162.379 312.676C162.379 393.959 228.272 459.852 309.555 459.852Z" fill="#0CB0F2"/>
<path d="M307.076 189.417H306.267C305.055 189.417 304.246 188.608 304.246 187.395V160.305C304.246 159.092 305.055 158.283 306.267 158.283H307.076C308.289 158.283 309.098 159.092 309.098 160.305V187.395C309.502 188.608 308.289 189.417 307.076 189.417Z" fill="#0CB0F2"/>
<path d="M307.076 472.851H306.267C305.055 472.851 304.246 472.043 304.246 470.83V443.739C304.246 442.526 305.055 441.718 306.267 441.718H307.076C308.289 441.718 309.098 442.526 309.098 443.739V470.83C309.502 472.043 308.289 472.851 307.076 472.851Z" fill="#0CB0F2"/>
<path d="M144.536 313.546V312.737C144.536 311.524 145.344 310.715 146.557 310.715H173.647C174.86 310.715 175.669 311.524 175.669 312.737V313.546C175.669 314.759 174.86 315.567 173.647 315.567H146.557C145.749 315.567 144.536 314.759 144.536 313.546Z" fill="#0CB0F2"/>
<path d="M437.675 313.546V312.737C437.675 311.524 438.483 310.715 439.696 310.715H466.786C467.999 310.715 468.808 311.524 468.808 312.737V313.546C468.808 314.759 467.999 315.567 466.786 315.567H439.696C438.483 315.567 437.675 314.759 437.675 313.546Z" fill="#0CB0F2"/>
<path d="M300.607 539.97C168.391 539.97 61.2437 432.823 61.2437 300.607C61.2437 168.391 168.391 61.2437 300.607 61.2437C341.444 61.2437 380.26 71.3519 413.819 89.5467" stroke="#0CB0F2" stroke-width="4" stroke-miterlimit="10" stroke-linecap="round" stroke-linejoin="round"/>
<path d="M417.809 102.978C421.532 103.97 424.931 100.557 423.923 96.8382L419.401 80.1559C418.394 76.4408 413.742 75.2093 411.029 77.9393L398.869 90.173C396.158 92.9 397.411 97.5383 401.127 98.529L417.809 102.978C421.532 103.97 424.931 100.557 423.923 96.8382L419.401 80.1559C418.394 76.4408 413.742 75.2093 411.029 77.9393L398.869 90.173C396.158 92.9 397.411 97.5383 401.127 98.529L417.809 102.978Z" fill="#1A5BE6"/>
<path d="M494.281 317.184C489.025 317.184 484.577 312.736 484.577 307.48C484.577 269.473 472.851 233.083 450.209 202.354L464.765 190.224C490.238 224.592 503.58 265.025 503.58 307.48C503.58 313.14 499.537 317.184 494.281 317.184Z" fill="#1A5BE6"/>
<path d="M369.343 141.3C349.126 133.618 328.101 129.979 306.672 129.979C285.242 129.979 264.217 134.022 244.001 141.3L237.531 123.106C259.769 114.615 282.816 110.571 306.672 110.571C330.527 110.571 353.574 114.615 375.812 123.106L369.343 141.3Z" fill="#1A5BE6"/>
<path d="M119.467 317.184C114.211 317.184 109.763 312.736 109.763 307.48C109.763 265.025 123.106 224.188 148.579 190.224L163.135 202.354C140.492 233.083 128.767 269.473 128.767 307.48C129.171 313.14 124.723 317.184 119.467 317.184Z" fill="#0CB0F2"/>
<path d="M151.409 186.99C172.838 159.091 201.546 137.662 234.297 124.723L240.766 142.918C211.25 154.644 185.777 174.456 166.369 199.524L151.409 186.99Z" fill="#0CB0F2"/>
<path d="M447.783 199.524C428.375 174.456 402.498 155.048 373.386 142.918L379.855 124.723C412.606 137.662 440.909 159.091 462.743 186.99L447.783 199.524Z" fill="#1A5BE6"/>
<path d="M314.957 239.908V300.579V310.709C314.957 311.813 314.062 312.709 312.957 312.709H307.275H306.849C305.744 312.709 304.849 311.813 304.849 310.709V239.908C304.849 238.803 303.953 237.908 302.849 237.908H301.988C300.417 237.908 299.459 236.18 300.292 234.848L308.69 221.411C309.502 220.111 311.414 220.171 312.144 221.519L319.423 234.955C320.144 236.288 319.18 237.908 317.664 237.908H316.957C315.852 237.908 314.957 238.803 314.957 239.908Z" fill="#0CB0F2"/>
<path d="M399.824 300.573L415.903 311.292C417.128 312.109 417.08 313.926 415.813 314.677L399.734 324.205C398.401 324.995 396.715 324.034 396.715 322.485V320.716C396.715 319.612 395.819 318.716 394.715 318.716H311.805H311.379C310.275 318.716 309.379 317.821 309.379 316.716V308.587C309.379 307.482 310.275 306.587 311.379 306.587H319.488H394.715C395.819 306.587 396.715 305.691 396.715 304.587V302.237C396.715 300.64 398.495 299.687 399.824 300.573Z" fill="#0CB0F2"/>
<path d="M309.475 312.5L164.379 312.5" stroke="black" stroke-width="3" stroke-linecap="round"/>
<circle cx="309.57" cy="312.691" r="13.191" fill="#1A5BE6"/>
<circle cx="309.57" cy="312.691" r="5.27638" fill="black"/>
<path d="M552.295 384.111C553.336 384.478 554.48 383.932 554.839 382.887C570.361 337.826 573.508 289.425 563.951 242.733C563.73 241.651 562.667 240.961 561.586 241.191L550.199 243.611C549.118 243.84 548.429 244.903 548.65 245.985C557.609 289.86 554.653 335.336 540.089 377.682C539.729 378.727 540.275 379.869 541.316 380.237L552.295 384.111Z" fill="#1A5BE6"/>
</svg>
