<svg width="15" height="16" viewBox="0 0 15 16" fill="none" xmlns="http://www.w3.org/2000/svg">
<path d="M6.70113 8.89615L0 4.4286C0 3.64297 0.675095 3 1.49997 3H13.4998C14.3246 3 14.9997 3.64297 14.9997 4.4286L8.2986 8.89615C7.88029 9.17478 7.11941 9.17478 6.70113 8.89615ZM7.50008 10.5316C6.90304 10.5316 6.30648 10.3768 5.84106 10.0669L0.000268114 6.1723V11.5714C0.000268114 12.357 0.675363 13 1.50024 13H13.5C14.3249 13 15 12.357 15 11.5714V6.1723L9.15921 10.0665C8.69382 10.3764 8.09712 10.5316 7.50008 10.5316Z" fill="#1A5BE6"/>
</svg>
