<svg width="97" height="55" viewBox="0 0 97 55" fill="none" xmlns="http://www.w3.org/2000/svg">
<path d="M4.59617 53.2568C3.92665 53.2568 3.32028 53.1115 2.77708 52.8209C2.2402 52.5241 1.81701 52.1167 1.50751 51.5987C1.20433 51.0808 1.05273 50.4965 1.05273 49.846C1.05273 49.1954 1.20748 48.6111 1.51698 48.0932C1.82648 47.5753 2.24967 47.171 2.78656 46.8805C3.32976 46.5836 3.93612 46.4352 4.60565 46.4352C5.14885 46.4352 5.64468 46.5299 6.09313 46.7194C6.54159 46.9089 6.92057 47.1836 7.23007 47.5437L6.43421 48.2922C5.95418 47.7742 5.3636 47.5153 4.66249 47.5153C4.20772 47.5153 3.80032 47.6163 3.44029 47.8184C3.08026 48.0142 2.79919 48.289 2.59707 48.6427C2.39495 48.9964 2.29389 49.3975 2.29389 49.846C2.29389 50.2944 2.39495 50.6955 2.59707 51.0492C2.79919 51.4029 3.08026 51.6808 3.44029 51.883C3.80032 52.0788 4.20772 52.1767 4.66249 52.1767C5.3636 52.1767 5.95418 51.9145 6.43421 51.3903L7.23007 52.1483C6.92057 52.5083 6.53843 52.783 6.08366 52.9725C5.6352 53.162 5.13938 53.2568 4.59617 53.2568Z" fill="#3098CA"/>
<path d="M10.4056 53.2283C9.89401 53.2283 9.43292 53.1178 9.02236 52.8967C8.61181 52.6757 8.28967 52.3693 8.05597 51.9777C7.82859 51.5798 7.71489 51.1313 7.71489 50.6323C7.71489 50.1334 7.82859 49.6881 8.05597 49.2964C8.28967 48.9048 8.61181 48.5985 9.02236 48.3774C9.43292 48.1564 9.89401 48.0458 10.4056 48.0458C10.9236 48.0458 11.3878 48.1564 11.7984 48.3774C12.2089 48.5985 12.5279 48.9048 12.7553 49.2964C12.989 49.6881 13.1058 50.1334 13.1058 50.6323C13.1058 51.1313 12.989 51.5798 12.7553 51.9777C12.5279 52.3693 12.2089 52.6757 11.7984 52.8967C11.3878 53.1178 10.9236 53.2283 10.4056 53.2283ZM10.4056 52.2146C10.8415 52.2146 11.2015 52.0693 11.4857 51.7787C11.77 51.4882 11.9121 51.1061 11.9121 50.6323C11.9121 50.1586 11.77 49.7765 11.4857 49.4859C11.2015 49.1954 10.8415 49.0501 10.4056 49.0501C9.96981 49.0501 9.60978 49.1954 9.32555 49.4859C9.04763 49.7765 8.90867 50.1586 8.90867 50.6323C8.90867 51.1061 9.04763 51.4882 9.32555 51.7787C9.60978 52.0693 9.96981 52.2146 10.4056 52.2146Z" fill="#3098CA"/>
<path d="M18.9006 48.1027V53.162H17.7163V49.107H15.8215L15.7741 50.1112C15.7425 50.7808 15.6793 51.3429 15.5846 51.7977C15.4962 52.2462 15.3414 52.603 15.1203 52.8683C14.9056 53.1273 14.6087 53.2568 14.2298 53.2568C14.0529 53.2568 13.835 53.222 13.576 53.1525L13.6329 52.1577C13.7213 52.1767 13.7971 52.1862 13.8602 52.1862C14.1003 52.1862 14.2803 52.0914 14.4003 51.9019C14.5203 51.7061 14.5961 51.4756 14.6277 51.2103C14.6656 50.9387 14.6972 50.5534 14.7224 50.0544L14.8077 48.1027H18.9006Z" fill="#3098CA"/>
<path d="M20.5904 48.1027H21.7747V50.1586H24.3233V48.1027H25.5076V53.162H24.3233V51.1629H21.7747V53.162H20.5904V48.1027Z" fill="#3098CA"/>
<path d="M31.9267 50.6608C31.9267 50.7429 31.9204 50.8597 31.9078 51.0113H27.938C28.0075 51.384 28.1875 51.6808 28.478 51.9019C28.7749 52.1167 29.1413 52.224 29.5771 52.224C30.1329 52.224 30.5908 52.0409 30.9509 51.6745L31.5857 52.4041C31.3583 52.6757 31.0709 52.8809 30.7235 53.0199C30.3761 53.1589 29.9845 53.2283 29.5487 53.2283C28.9928 53.2283 28.5033 53.1178 28.0801 52.8967C27.6569 52.6757 27.3285 52.3693 27.0948 51.9777C26.8674 51.5798 26.7537 51.1313 26.7537 50.6323C26.7537 50.1397 26.8642 49.6975 27.0853 49.3059C27.3127 48.908 27.6253 48.5985 28.0233 48.3774C28.4212 48.1564 28.8697 48.0458 29.3686 48.0458C29.8613 48.0458 30.3003 48.1564 30.6856 48.3774C31.0772 48.5922 31.3804 48.8985 31.5951 49.2964C31.8162 49.6881 31.9267 50.1428 31.9267 50.6608ZM29.3686 48.9933C28.9897 48.9933 28.6675 49.107 28.4023 49.3343C28.1433 49.5554 27.9854 49.8523 27.9285 50.2249H30.7993C30.7488 49.8586 30.594 49.5617 30.335 49.3343C30.0761 49.107 29.7539 48.9933 29.3686 48.9933Z" fill="#3098CA"/>
<path d="M37.6087 48.1027V53.162H36.4244V51.2008C35.9381 51.4345 35.4296 51.5514 34.8991 51.5514C34.2485 51.5514 33.7495 51.4029 33.4021 51.1061C33.0547 50.8029 32.881 50.3418 32.881 49.7228V48.1027H34.0653V49.647C34.0653 49.9691 34.16 50.2092 34.3495 50.3671C34.539 50.525 34.8075 50.6039 35.1549 50.6039C35.597 50.6039 36.0202 50.5092 36.4244 50.3197V48.1027H37.6087Z" fill="#3098CA"/>
<path d="M39.2961 48.1027H40.4804V50.1586H43.029V48.1027H44.2133V53.162H43.029V51.1629H40.4804V53.162H39.2961V48.1027Z" fill="#3098CA"/>
<path d="M48.3586 49.7702C49.0029 49.7702 49.4955 49.9154 49.8366 50.206C50.1777 50.4965 50.3482 50.9071 50.3482 51.4377C50.3482 51.9935 50.1587 52.423 49.7798 52.7262C49.4071 53.0294 48.8765 53.1778 48.1881 53.1715L45.8952 53.162V48.1027H47.0795V49.7607L48.3586 49.7702ZM51.002 48.1027H52.1863V53.162H51.002V48.1027ZM48.0838 52.2998C48.4312 52.3062 48.6965 52.2335 48.8797 52.0819C49.0629 51.9303 49.1544 51.7093 49.1544 51.4187C49.1544 51.1345 49.066 50.9261 48.8892 50.7934C48.7123 50.6608 48.4439 50.5913 48.0838 50.585L47.0795 50.5755V52.2904L48.0838 52.2998Z" fill="#3098CA"/>
<path d="M53.873 48.1027H55.0573V51.4377L57.8523 48.1027H58.9324V53.162H57.7481V49.827L54.9626 53.162H53.873V48.1027ZM56.3269 47.5058C55.8153 47.5058 55.4237 47.3889 55.1521 47.1552C54.8868 46.9152 54.751 46.5678 54.7447 46.113H55.531C55.5374 46.3404 55.6068 46.5204 55.7395 46.6531C55.8784 46.7857 56.0711 46.852 56.3174 46.852C56.5574 46.852 56.7469 46.7857 56.8859 46.6531C57.0312 46.5204 57.107 46.3404 57.1133 46.113H57.9186C57.9123 46.5678 57.7733 46.9152 57.5017 47.1552C57.2301 47.3889 56.8385 47.5058 56.3269 47.5058Z" fill="#3098CA"/>
<path d="M69.3402 46.5299V53.162H68.1275V47.5721H64.6882V53.162H63.4755V46.5299H69.3402Z" fill="#3098CA"/>
<path d="M73.0578 48.0458C73.8031 48.0458 74.3716 48.2258 74.7632 48.5859C75.1611 48.9396 75.3601 49.4765 75.3601 50.1965V53.162H74.2421V52.5462C74.0968 52.7672 73.8884 52.9378 73.6168 53.0578C73.3515 53.1715 73.0294 53.2283 72.6504 53.2283C72.2714 53.2283 71.9398 53.1652 71.6556 53.0388C71.3713 52.9062 71.1503 52.7262 70.9924 52.4988C70.8408 52.2651 70.765 52.003 70.765 51.7124C70.765 51.2577 70.9324 50.8945 71.2671 50.6229C71.6082 50.345 72.1419 50.206 72.8683 50.206H74.1758V50.1302C74.1758 49.7765 74.0684 49.5049 73.8536 49.3154C73.6452 49.1259 73.3325 49.0312 72.9157 49.0312C72.6314 49.0312 72.3504 49.0754 72.0724 49.1638C71.8008 49.2522 71.5703 49.3754 71.3808 49.5333L70.9166 48.6711C71.1818 48.469 71.5008 48.3143 71.8735 48.2069C72.2461 48.0995 72.6409 48.0458 73.0578 48.0458ZM72.8967 52.3662C73.1936 52.3662 73.4557 52.2998 73.6831 52.1672C73.9168 52.0282 74.081 51.8324 74.1758 51.5798V50.9924H72.9536C72.2714 50.9924 71.9303 51.2166 71.9303 51.6651C71.9303 51.8798 72.0156 52.0504 72.1861 52.1767C72.3567 52.303 72.5935 52.3662 72.8967 52.3662Z" fill="#3098CA"/>
<path d="M79.7248 48.0458C80.2174 48.0458 80.6564 48.1532 81.0417 48.368C81.4333 48.5827 81.7397 48.8859 81.9607 49.2775C82.1818 49.6691 82.2923 50.1207 82.2923 50.6323C82.2923 51.144 82.1818 51.5987 81.9607 51.9967C81.7397 52.3883 81.4333 52.6915 81.0417 52.9062C80.6564 53.121 80.2174 53.2283 79.7248 53.2283C79.0426 53.2283 78.5026 53.001 78.1046 52.5462V55.0001H76.9203V48.1027H78.0478V48.7659C78.2436 48.5259 78.4836 48.3458 78.7678 48.2258C79.0584 48.1058 79.3774 48.0458 79.7248 48.0458ZM79.5921 52.2146C80.0279 52.2146 80.3848 52.0693 80.6627 51.7787C80.947 51.4882 81.0891 51.1061 81.0891 50.6323C81.0891 50.1586 80.947 49.7765 80.6627 49.4859C80.3848 49.1954 80.0279 49.0501 79.5921 49.0501C79.3079 49.0501 79.0521 49.1164 78.8247 49.2491C78.5973 49.3754 78.4173 49.5586 78.2846 49.7986C78.152 50.0386 78.0857 50.3165 78.0857 50.6323C78.0857 50.9482 78.152 51.2261 78.2846 51.4661C78.4173 51.7061 78.5973 51.8924 78.8247 52.0251C79.0521 52.1514 79.3079 52.2146 79.5921 52.2146Z" fill="#3098CA"/>
<path d="M85.6691 51.1345H84.7501V53.162H83.5658V48.1027H84.7501V50.1491H85.6975L87.1945 48.1027H88.464L86.626 50.5376L88.5872 53.162H87.1945L85.6691 51.1345Z" fill="#3098CA"/>
<path fill-rule="evenodd" clip-rule="evenodd" d="M58.4626 22.266C58.4653 24.2209 58.0514 26.1539 57.2485 27.9362C56.7223 27.7858 56.2001 27.6222 55.6818 27.4455C55.027 27.2236 54.3791 26.9791 53.7366 26.7173C53.4153 26.5865 53.0958 26.4506 52.7779 26.3096C52.6173 26.2394 52.4601 26.1674 52.3019 26.0954L52.069 25.9883L51.8029 25.8633C50.2999 25.159 48.7631 24.5171 47.1923 23.9376C45.6216 23.362 44.0172 22.856 42.3801 22.4357C40.7333 22.0097 39.0623 21.6834 37.3762 21.4586C36.9521 21.4021 36.5257 21.3552 36.0981 21.3129C35.6706 21.2706 35.2414 21.2374 34.8109 21.2131C33.9503 21.1608 33.0847 21.1429 32.2141 21.1595C31.7692 21.169 31.3238 21.1885 30.8779 21.2181C31.4134 14.0787 37.3749 8.45264 44.6508 8.45264C52.2786 8.45398 58.4626 14.6377 58.4626 22.266Z" fill="url(#paint0_radial_63_1207)"/>
<path d="M67.5324 22.8817C67.5324 21.923 65.045 21.1364 64.9243 20.2107C64.8009 19.2635 66.9999 17.8636 66.7581 16.9587C66.5121 16.0386 63.9059 15.9235 63.5456 15.0561C63.1817 14.1785 64.9406 12.2536 64.4692 11.439C63.9945 10.6182 61.4477 11.1836 60.8732 10.4356C60.2987 9.68758 61.4983 7.37049 60.8301 6.70254C60.1619 6.03459 57.8475 7.23637 57.0971 6.65971C56.3467 6.08304 56.9145 3.5384 56.0939 3.06348C55.279 2.59203 53.3544 4.35092 52.4768 3.9871C51.6092 3.62729 51.494 1.02107 50.5739 0.774504C49.669 0.53356 48.2691 2.73178 47.322 2.60809C46.3962 2.48762 45.6086 0 44.6512 0C43.6939 0 42.906 2.48762 41.9805 2.60809C41.033 2.73178 39.6332 0.532489 38.7283 0.774504C37.8084 1.02027 37.693 3.62648 36.8256 3.9871C35.948 4.35092 34.0232 2.59203 33.2085 3.06348C32.388 3.53814 32.9531 6.08492 32.2051 6.65971C31.4571 7.23449 29.1403 6.03432 28.4721 6.70254C27.8039 7.37076 29.0059 9.68517 28.4292 10.4356C27.8526 11.186 25.3079 10.6182 24.833 11.4387C24.3616 12.2536 26.1205 14.1782 25.7566 15.0558C25.3968 15.9235 22.7906 16.0386 22.544 16.9587C22.3031 17.8636 24.5013 19.2635 24.3776 20.2107C24.2569 21.1364 21.7695 21.9241 21.7695 22.8817C21.7695 22.9998 22.1909 23.1098 22.6843 23.2182C23.9474 22.6244 25.2812 22.1741 26.6339 21.8499C27.0299 12.2416 34.9446 4.57393 44.6512 4.57393C54.6103 4.57393 62.6827 12.6466 62.6827 22.6054C62.6852 24.7413 62.3072 26.8606 61.5666 28.8641C61.6201 28.8721 61.6737 28.8796 61.7272 28.8871C62.415 28.9845 63.1076 29.0571 63.8047 29.1106C64.3071 29.1481 64.8118 29.1744 65.3186 29.1896C64.8416 28.7369 64.3765 28.2872 64.4504 28.0004C64.6014 27.4141 67.1086 27.3255 67.2106 26.721C67.3113 26.1251 64.9736 25.2167 65.0247 24.6061C65.0756 24.0034 67.5324 23.4961 67.5324 22.8817Z" fill="url(#paint1_radial_63_1207)"/>
<g style="mix-blend-mode:multiply">
<path d="M15.1045 30.8531L15.1615 30.7101L15.2218 30.5682C15.2624 30.474 15.304 30.3799 15.3465 30.286C15.433 30.0986 15.5237 29.9136 15.6204 29.7305C15.8121 29.3635 16.0244 29.0047 16.253 28.6535C16.7181 27.9429 17.2468 27.2759 17.8325 26.6609C18.1294 26.3509 18.4397 26.0494 18.7663 25.7638C18.9291 25.621 19.0951 25.4804 19.2643 25.3421C19.4343 25.2059 19.6064 25.0709 19.7823 24.9405C20.4905 24.4175 21.2387 23.9511 22.0201 23.5455C23.5881 22.7287 25.2804 22.145 26.9997 21.7641C27.8582 21.5747 28.7261 21.4305 29.5997 21.3323C30.4703 21.2345 31.3409 21.177 32.2113 21.1599C33.0817 21.1427 33.9473 21.1606 34.8081 21.2134C35.2386 21.2378 35.6675 21.2734 36.0953 21.3133C36.5231 21.3531 36.9493 21.4024 37.3734 21.4589C39.0604 21.6833 40.7324 22.0094 42.3802 22.4353C44.0173 22.8556 45.6217 23.3616 47.1924 23.9371C48.7631 24.5127 50.3001 25.1585 51.803 25.8628L52.0691 25.9878L52.302 26.0949C52.4603 26.1675 52.6187 26.2395 52.778 26.3091C53.0957 26.4499 53.4153 26.5858 53.7367 26.7168C54.3792 26.9787 55.0271 27.2231 55.6819 27.445C56.9902 27.8911 58.3251 28.2546 59.679 28.5333C60.3563 28.6721 61.039 28.7899 61.727 28.8867C62.4147 28.9841 63.1073 29.0567 63.8045 29.1102C65.212 29.2157 66.6247 29.2325 68.0344 29.1606C70.881 29.0176 73.7729 28.522 76.6548 27.6806C77.3755 27.4704 78.0957 27.2383 78.8153 26.9846C79.1749 26.8575 79.5346 26.7255 79.8942 26.5886C80.2524 26.4494 80.6127 26.308 80.9707 26.1581C81.6885 25.8615 82.405 25.5417 83.1202 25.1989C83.4789 25.0284 83.8363 24.8509 84.1959 24.6693C84.375 24.5781 84.5554 24.4865 84.7353 24.3928L85.0068 24.2528L85.1422 24.1813L85.279 24.1109L85.2017 24.2448L85.1213 24.3762L84.9591 24.638C84.8483 24.8107 84.735 24.9823 84.618 25.1512C84.3849 25.4902 84.1391 25.8205 83.8842 26.1458C83.3702 26.7967 82.8212 27.4193 82.2397 28.0107C81.9473 28.3068 81.6485 28.5997 81.3401 28.8805C81.0317 29.1614 80.7177 29.4409 80.3951 29.7104C79.7501 30.248 79.0781 30.7567 78.3792 31.2364C75.5877 33.1501 72.3997 34.5797 69.0131 35.4128C67.309 35.8322 65.5709 36.0988 63.8194 36.2095C62.052 36.3212 60.2781 36.2758 58.5187 36.0738C56.7548 35.8712 55.0115 35.518 53.3078 35.0179C52.8827 34.8932 52.4608 34.7588 52.0413 34.6182C51.6218 34.4777 51.2063 34.3259 50.7943 34.1671C50.3822 34.0084 49.9732 33.8418 49.5684 33.6673C49.3663 33.58 49.165 33.4908 48.9644 33.3996L48.6606 33.2593L48.3912 33.1329C47.0387 32.4975 45.6787 31.8931 44.3112 31.3197C42.9435 30.7489 41.568 30.2135 40.1849 29.7238C38.8019 29.2342 37.4111 28.7884 36.0134 28.4043C34.6156 28.0201 33.2112 27.6943 31.8019 27.4523C31.097 27.331 30.3913 27.2295 29.6848 27.1538C28.9783 27.078 28.271 27.025 27.5637 27.0025C26.1494 26.9573 24.7337 27.0255 23.325 27.2555C22.6144 27.3708 21.9112 27.5284 21.2194 27.7275C21.0448 27.7783 20.8714 27.8308 20.6963 27.8881C20.5212 27.9454 20.3482 28.0021 20.174 28.0648C19.8281 28.1912 19.4803 28.325 19.1374 28.4757C18.4355 28.7803 17.754 29.1296 17.0968 29.5214C16.7609 29.7203 16.4275 29.9315 16.0964 30.1551C15.9311 30.2667 15.7658 30.3809 15.6006 30.4978C15.5176 30.5556 15.4349 30.6144 15.3524 30.6742L15.1045 30.8531Z" fill="#1D71B8"/>
</g>
<g style="mix-blend-mode:multiply">
<path d="M0 31.3315L0.0572916 31.1896L0.117528 31.0477C0.158221 30.9534 0.199805 30.8593 0.242283 30.7652C0.329023 30.5778 0.41978 30.3931 0.516157 30.21C0.70811 29.843 0.920141 29.4842 1.14877 29.1327C1.61415 28.4223 2.14281 27.7555 2.7283 27.1404C3.02546 26.8303 3.33574 26.5286 3.66209 26.243C3.82522 26.1002 3.99129 25.9597 4.16031 25.8216C4.33004 25.6853 4.50218 25.5504 4.67834 25.42C5.3864 24.8969 6.13457 24.4305 6.91591 24.0249C8.48392 23.2079 10.1762 22.6245 11.8954 22.2433C12.754 22.054 13.622 21.9099 14.4958 21.8117C15.366 21.7138 16.2364 21.6563 17.1071 21.6393C17.9777 21.6224 18.8433 21.6398 19.7039 21.6915C20.1347 21.7159 20.5635 21.7515 20.9913 21.7914C21.4192 21.8313 21.8451 21.8805 22.2694 21.937C23.9557 22.1613 25.6268 22.4871 27.2738 22.9126C28.902 23.3326 30.508 23.8338 32.086 24.4145C33.6566 24.9906 35.1936 25.6325 36.6969 26.3402L36.9628 26.4652L37.1959 26.5723C37.3542 26.6451 37.5124 26.7171 37.6717 26.7864C37.9897 26.9276 38.3093 27.0636 38.6304 27.1944C39.2729 27.4563 39.9207 27.7007 40.5756 27.9226C41.8838 28.3686 43.2188 28.7321 44.5726 29.0109C45.2502 29.1496 45.9328 29.2687 46.6206 29.364C47.3084 29.4593 48.0012 29.5343 48.6981 29.5878C50.1056 29.6931 51.5184 29.7099 52.928 29.6382C55.7744 29.4952 58.6662 28.9994 61.5485 28.1582C62.2693 27.948 62.9896 27.716 63.7092 27.4622C64.0685 27.3347 64.428 27.2026 64.7878 27.0659C65.1463 26.9267 65.5064 26.7856 65.8643 26.6357C66.5823 26.3389 67.2989 26.0191 68.0141 25.6762C68.3725 25.506 68.7302 25.3282 69.0895 25.1469C69.2689 25.0556 69.4487 24.9634 69.6289 24.8704L69.9004 24.7301L70.0359 24.6589L70.1727 24.5882L70.0953 24.7221L70.015 24.8535L69.8527 25.1154C69.7421 25.2883 69.6284 25.4595 69.5117 25.6288C69.2788 25.9678 69.033 26.2981 68.7781 26.6231C68.2639 27.274 67.715 27.8967 67.1336 28.4883C66.8409 28.7828 66.5422 29.0773 66.2337 29.3581C65.9253 29.639 65.6116 29.9185 65.289 30.188C64.6442 30.7256 63.9722 31.2343 63.2731 31.714C60.4813 33.6277 57.2934 35.0573 53.9068 35.8904C52.2026 36.3097 50.4645 36.5762 48.7131 36.6869C46.9456 36.7988 45.1717 36.7535 43.4123 36.5514C41.6487 36.3486 39.9056 35.9953 38.2023 35.4952C37.7771 35.3705 37.3552 35.2361 36.9357 35.0953C36.5162 34.9545 36.1018 34.8037 35.6903 34.6431C35.2788 34.4825 34.8695 34.3178 34.4647 34.1433C34.2623 34.0557 34.0607 33.9671 33.8605 33.8756L33.5566 33.7355L33.2873 33.6092C31.935 32.9736 30.575 32.3692 29.2073 31.7959C27.8398 31.2249 26.4643 30.6897 25.081 30.2001C23.6977 29.7104 22.3074 29.2647 20.9094 28.8805C19.5114 28.4963 18.1075 28.1705 16.698 27.9282C15.9934 27.8072 15.2877 27.7055 14.5812 27.63C13.8747 27.5545 13.1673 27.5012 12.46 27.4788C11.0454 27.4335 9.63001 27.5018 8.22129 27.7317C7.51059 27.847 6.80739 28.0045 6.11544 28.2035C5.94116 28.2546 5.76741 28.3068 5.59232 28.3641C5.41723 28.4214 5.24429 28.4784 5.07027 28.5411C4.72412 28.6674 4.37662 28.8013 4.03368 28.952C3.33183 29.2565 2.65025 29.6058 1.99315 29.9977C1.6569 30.1963 1.32341 30.4075 0.992692 30.6311C0.827243 30.743 0.661973 30.8572 0.496881 30.9738C0.413621 31.0319 0.331166 31.0908 0.248709 31.1505L0 31.3315Z" fill="#36A9E1"/>
</g>
<g style="mix-blend-mode:multiply">
<path d="M26.6758 34.3964L26.7328 34.2534L26.793 34.1115C26.8337 34.0173 26.8753 33.9232 26.9178 33.8293C27.0045 33.6419 27.0953 33.457 27.1917 33.2738C27.3834 32.9068 27.5957 32.5481 27.8243 32.1968C28.2896 31.4863 28.8183 30.8194 29.4038 30.2042C29.7007 29.8942 30.0113 29.5927 30.3376 29.3071C30.5004 29.1643 30.6664 29.0237 30.8358 28.8854C31.0056 28.7492 31.1777 28.6142 31.3539 28.4839C32.0619 27.9608 32.8101 27.4943 33.5914 27.0888C35.1594 26.272 36.8517 25.6884 38.5723 25.3074C39.4309 25.118 40.2989 24.9738 41.1726 24.8756C42.0429 24.778 42.9133 24.7205 43.7839 24.7032C44.6545 24.6859 45.5201 24.7037 46.3808 24.7567C46.8115 24.7811 47.2404 24.8167 47.6682 24.8566C48.096 24.8965 48.522 24.9457 48.9463 25.0022C50.6325 25.2265 52.3037 25.5523 53.9507 25.9778C55.5878 26.3981 57.1922 26.9041 58.7629 27.4797C60.3336 28.0552 61.8705 28.701 63.3735 29.4053L63.6407 29.5298L63.8736 29.6369C64.0321 29.7095 64.1903 29.7815 64.3496 29.8511C64.6676 29.9919 64.9872 30.1278 65.3083 30.2588C65.9508 30.5206 66.5987 30.7651 67.2535 30.987C68.5618 31.433 69.8967 31.7965 71.2505 32.0753C71.9287 32.2143 72.6114 32.3321 73.2985 32.4287C73.9863 32.5261 74.6791 32.5987 75.376 32.6522C76.7835 32.7576 78.1963 32.7744 79.6059 32.7025C82.4523 32.5596 85.3442 32.0638 88.2264 31.2226C88.9474 31.0125 89.6677 30.7805 90.3871 30.5265C90.7464 30.3995 91.1059 30.2674 91.4658 30.1303C91.824 29.9911 92.1843 29.85 92.5422 29.7001C93.2602 29.4035 93.9768 29.0837 94.692 28.7409C95.0505 28.5703 95.4081 28.3928 95.7674 28.2113C95.9465 28.12 96.127 28.0285 96.3069 27.9348L96.5783 27.7945L96.7138 27.7233L96.8506 27.6529L96.7732 27.7867L96.6929 27.9182L96.5307 28.18C96.4201 28.3527 96.3066 28.5243 96.1896 28.6932C95.9567 29.0321 95.7106 29.3625 95.4561 29.6878C94.9418 30.3387 94.3928 30.9612 93.8112 31.5527C93.5189 31.8488 93.2201 32.1417 92.9117 32.4225C92.6033 32.7033 92.2895 32.9828 91.9669 33.2524C91.3219 33.79 90.6499 34.2987 89.951 34.7784C87.1593 36.692 83.9713 38.1216 80.5847 38.9548C78.8806 39.3741 77.1425 39.6408 75.391 39.7515C73.6235 39.8632 71.8497 39.8178 70.0902 39.6158C68.3266 39.4131 66.5835 39.0598 64.8802 38.5596C64.4551 38.4349 64.0329 38.3005 63.6136 38.1599C63.1944 38.0194 62.7786 37.8676 62.3663 37.7088C61.9541 37.5501 61.5453 37.3835 61.1407 37.209C60.9384 37.1215 60.7368 37.0328 60.5365 36.9413L60.2327 36.801L59.9633 36.6746C58.6108 36.0394 57.2508 35.435 55.8833 34.8614C54.5156 34.2906 53.1403 33.7552 51.757 33.2655C50.3737 32.7759 48.9832 32.3301 47.5855 31.946C46.1877 31.5618 44.7833 31.236 43.374 30.994C42.6694 30.8727 41.9634 30.7712 41.2569 30.6955C40.5504 30.6197 39.8434 30.5667 39.1361 30.5442C37.7215 30.499 36.3061 30.5672 34.8973 30.7972C34.1866 30.9125 33.4834 31.0701 32.7915 31.2692C32.6172 31.32 32.4435 31.3725 32.2684 31.4298C32.0933 31.4871 31.9203 31.5439 31.7461 31.6065C31.4002 31.7329 31.0527 31.8667 30.7097 32.0174C30.0079 32.322 29.3263 32.6713 28.6692 33.0631C28.3329 33.262 27.9994 33.4732 27.6685 33.6968C27.5033 33.8085 27.3376 33.9225 27.1729 34.0395C27.0898 34.0973 27.007 34.1561 26.9248 34.2159L26.6758 34.3964Z" fill="#1D71B8"/>
</g>
<path d="M39.3936 11.6872C39.5318 11.5848 39.676 11.4906 39.8254 11.4053C39.9748 11.3193 40.1276 11.2388 40.2845 11.1643C40.4414 11.0899 40.6015 11.0238 40.7645 10.9611C40.9276 10.8985 41.0949 10.8463 41.2641 10.7981C41.4333 10.7499 41.6065 10.7122 41.7818 10.6803C41.9584 10.6496 42.1364 10.6278 42.3151 10.615C42.4966 10.6024 42.6786 10.601 42.8602 10.611C42.9518 10.616 43.0436 10.6233 43.1352 10.6343C43.2267 10.6452 43.3185 10.661 43.4098 10.6782C43.594 10.7138 43.7752 10.7629 43.9522 10.8249C44.1309 10.8882 44.3043 10.9656 44.4708 11.0562C44.8046 11.2388 45.109 11.4707 45.3735 11.7442C45.6329 12.0135 45.8584 12.3135 46.045 12.6376C46.2273 12.9532 46.3806 13.2848 46.503 13.6281H45.6415C45.7012 13.4654 45.7655 13.3036 45.8359 13.1433C45.9063 12.9829 45.981 12.8239 46.0634 12.6676C46.2283 12.3485 46.4237 12.0462 46.6468 11.7648C46.7616 11.6214 46.8856 11.4856 47.0178 11.3582C47.1521 11.2292 47.296 11.1106 47.4483 11.0034C47.7552 10.7882 48.0969 10.6273 48.4584 10.528C48.6359 10.4801 48.8169 10.4466 48.9997 10.4278C49.0902 10.4185 49.1804 10.4121 49.2704 10.4091C49.3604 10.4062 49.45 10.4075 49.5381 10.4107C49.8878 10.4258 50.2348 10.4782 50.5734 10.5671C50.9033 10.653 51.2264 10.7632 51.5401 10.8966C51.8503 11.0267 52.1523 11.1754 52.4444 11.3421C52.1173 11.2685 51.7928 11.1954 51.4686 11.1354C51.1482 11.0747 50.8249 11.03 50.5 11.0016C50.1852 10.9737 49.8685 10.9737 49.5536 11.0016C49.4767 11.0091 49.4006 11.019 49.3253 11.0313C49.2501 11.0433 49.1756 11.058 49.1023 11.0736C48.9572 11.1062 48.8148 11.1498 48.6763 11.204C48.405 11.3089 48.1525 11.4571 47.9286 11.6427C47.7027 11.8319 47.502 12.0491 47.3313 12.2893C46.9806 12.7763 46.7188 13.3481 46.5014 13.9427C46.4694 14.0309 46.411 14.1071 46.3343 14.1611C46.2575 14.215 46.166 14.2441 46.0722 14.2445C45.9784 14.2448 45.8867 14.2163 45.8096 14.1629C45.7325 14.1094 45.6736 14.0336 45.641 13.9456L45.6396 13.9422C45.4217 13.3481 45.131 12.791 44.7294 12.3436C44.5321 12.1199 44.3049 11.9244 44.0542 11.7627C43.7998 11.6007 43.5244 11.4746 43.2355 11.3879C42.6487 11.2104 41.9987 11.1831 41.3476 11.2484C41.1846 11.2639 41.021 11.2864 40.8577 11.314C40.6944 11.3416 40.5308 11.3742 40.3672 11.4101C40.038 11.4852 39.713 11.5777 39.3936 11.6872Z" fill="#1D1D1B"/>
<path d="M45.4092 15.8788C45.5731 15.7601 45.7481 15.6575 45.9318 15.5725C46.117 15.4852 46.3093 15.4135 46.5065 15.3584C46.6061 15.3311 46.7073 15.308 46.8101 15.289C46.9137 15.271 47.0182 15.2582 47.1231 15.2507C47.2295 15.2433 47.3363 15.2426 47.4427 15.2486C47.5507 15.2538 47.658 15.267 47.764 15.288C48.2033 15.3721 48.6055 15.5906 48.9152 15.9133C49.067 16.0717 49.1992 16.2477 49.309 16.4375C49.4155 16.623 49.5051 16.8177 49.5767 17.0193H49.0721C49.1421 16.8262 49.2247 16.638 49.3194 16.4557C49.416 16.2685 49.5307 16.0911 49.6619 15.9262C49.7292 15.8421 49.8018 15.7624 49.8792 15.6874C49.9582 15.612 50.0427 15.5425 50.132 15.4796C50.3118 15.3531 50.5121 15.2587 50.7241 15.2004C50.9308 15.1456 51.1445 15.1224 51.3581 15.1316C51.5633 15.1405 51.7669 15.1713 51.9655 15.2234C52.159 15.2737 52.3486 15.3381 52.5326 15.4162C52.7144 15.4927 52.8915 15.5799 53.0629 15.6775C52.6798 15.5902 52.2994 15.5083 51.9222 15.478C51.545 15.4478 51.1726 15.47 50.8513 15.5972C50.6922 15.6588 50.5441 15.7456 50.4125 15.8542C50.3464 15.9086 50.2843 15.9679 50.2267 16.0314C50.1677 16.0953 50.1126 16.1629 50.0618 16.2335C49.8565 16.5195 49.7023 16.8546 49.5756 17.2037C49.5572 17.2556 49.5233 17.3004 49.4785 17.3323C49.4337 17.3642 49.3802 17.3815 49.3252 17.3819C49.2702 17.3822 49.2165 17.3657 49.1712 17.3344C49.126 17.3032 49.0915 17.2588 49.0723 17.2072L49.0707 17.2032C49.0083 17.0305 48.9324 16.8631 48.8437 16.7023C48.7582 16.5457 48.6553 16.3992 48.5369 16.2657C48.4216 16.134 48.2884 16.0192 48.1412 15.9246C48.0675 15.8771 47.9902 15.8352 47.9102 15.7993C47.8293 15.7622 47.7459 15.7307 47.6607 15.7051C47.3164 15.6009 46.9352 15.5851 46.5531 15.6248C46.1636 15.6667 45.7799 15.7519 45.4092 15.8788Z" fill="#1D1D1B"/>
<defs>
<radialGradient id="paint0_radial_63_1207" cx="0" cy="0" r="1" gradientUnits="userSpaceOnUse" gradientTransform="translate(44.6701 18.1951) scale(11.9399)">
<stop stop-color="#FFED00"/>
<stop offset="0.31" stop-color="#FCD400"/>
<stop offset="0.98" stop-color="#F39400"/>
<stop offset="1" stop-color="#F39200"/>
</radialGradient>
<radialGradient id="paint1_radial_63_1207" cx="0" cy="0" r="1" gradientUnits="userSpaceOnUse" gradientTransform="translate(116658 61594.5) scale(32803.3 20923.4)">
<stop stop-color="#FFED00"/>
<stop offset="0.31" stop-color="#FCD400"/>
<stop offset="0.98" stop-color="#F39400"/>
<stop offset="1" stop-color="#F39200"/>
</radialGradient>
</defs>
</svg>
