<svg width="15" height="16" viewBox="0 0 15 16" fill="none" xmlns="http://www.w3.org/2000/svg">
<path d="M14.684 13.5497L13.526 14.7076C13.0127 15.2209 12.3319 15.5 11.6206 15.5C11.5089 15.5 11.3973 15.4928 11.2838 15.4784C8.86866 15.1794 6.20865 13.7333 3.98641 11.5112C1.764 9.29066 0.319536 6.63097 0.0207703 4.21596C-0.0818647 3.38402 0.199032 2.56828 0.793347 1.97398L1.95136 0.816066C2.37282 0.394645 3.05898 0.394645 3.47857 0.816066L6.02512 3.36241C6.22863 3.5659 6.34207 3.83785 6.34207 4.12588C6.34207 4.41404 6.23039 4.68587 6.02512 4.88936L4.62404 6.29032L9.20907 10.875L10.6102 9.47402C11.0316 9.0526 11.7159 9.0526 12.1374 9.47402L14.6839 12.0204C15.1054 12.4419 15.1054 13.128 14.6839 13.5495L14.684 13.5497Z" fill="#1A5BE6"/>
</svg>
