<svg width="24" height="24" viewBox="0 0 24 24" fill="none" xmlns="http://www.w3.org/2000/svg">
<g clip-path="url(#clip0)">
<path fill-rule="evenodd" clip-rule="evenodd" d="M5.06936 1.80877C5.90149 1.26094 6.95797 1.57628 7.43527 2.37179L9.53507 5.87146C10.0158 6.6727 9.7823 7.71027 9.00464 8.22828L7.5414 9.20298C7.42354 9.28149 7.40529 9.42478 7.47256 9.52116C8.17696 10.5303 9.3921 12.1916 10.426 13.2255C11.46 14.2595 13.1216 15.4748 14.1306 16.1791C14.227 16.2464 14.3702 16.2282 14.4488 16.1104L15.4243 14.6471C15.9424 13.8699 16.9797 13.6366 17.7807 14.1172L21.2805 16.2171C22.0761 16.6945 22.3914 17.7513 21.8432 18.5834C21.4739 19.144 20.9202 19.9093 20.2492 20.5948C19.5912 21.2669 18.751 21.9347 17.7993 22.1897C16.4593 22.5488 14.8742 22.0921 13.7345 21.6383C12.5511 21.1672 11.6396 20.612 11.5622 20.5645L11.5577 20.5616L11.5466 20.5547L11.5371 20.5485L11.5355 20.5474C11.4292 20.4772 8.4437 18.5042 6.7954 16.8559C5.14714 15.2076 3.17465 12.2229 3.10463 12.1169L3.10298 12.1144L3.09684 12.1049L3.08986 12.0938L3.08706 12.0893C3.03959 12.0121 2.48426 11.1005 2.0131 9.91715C1.5593 8.77736 1.10252 7.19214 1.46179 5.85212C1.71698 4.90028 2.38504 4.06019 3.05745 3.40231C3.74311 2.73145 4.50867 2.1779 5.06936 1.80877ZM6.01746 3.04071C5.97449 3.02984 5.93378 3.03557 5.89418 3.06164C5.37621 3.40264 4.69728 3.89642 4.10647 4.47448C3.5024 5.06551 3.062 5.67592 2.91062 6.24056C2.68804 7.07077 2.96382 8.2499 3.40671 9.3623C3.81851 10.3966 4.30518 11.2058 4.36084 11.2971C4.49277 11.4965 6.35417 14.2933 7.85607 15.7952C9.35802 17.2972 12.1549 19.1586 12.3544 19.2906C12.4458 19.3464 13.255 19.833 14.2893 20.2447C15.4016 20.6876 16.5808 20.9633 17.411 20.7409C17.9757 20.5895 18.5862 20.1493 19.1773 19.5454C19.7555 18.9548 20.2494 18.2761 20.5906 17.7582C20.6167 17.7186 20.6224 17.6779 20.6116 17.6349C20.6 17.589 20.5678 17.5388 20.5087 17.5033L17.009 15.4035C16.8946 15.3348 16.7464 15.3681 16.6723 15.4792L15.6968 16.9424C15.1652 17.7399 14.0777 17.9715 13.2721 17.4091C12.2641 16.7055 10.503 15.4238 9.36535 14.2861C8.22782 13.1486 6.94624 11.3878 6.24259 10.3797C5.68008 9.57392 5.91197 8.48606 6.70982 7.95459L8.17306 6.9799C8.28415 6.90589 8.31751 6.75767 8.24883 6.64321L6.14903 3.14354C6.11357 3.08443 6.06333 3.05232 6.01746 3.04071Z" fill="#1A5BE6"/>
<path fill-rule="evenodd" clip-rule="evenodd" d="M12.2557 5.90767C12.3068 5.49661 12.6814 5.20476 13.0924 5.25579L13 6.00008C13.0924 5.25579 13.0927 5.25583 13.093 5.25587L13.0937 5.25595L13.095 5.25612L13.0983 5.25654L13.1068 5.25768L13.1314 5.26122C13.1512 5.26419 13.1777 5.26841 13.2104 5.2742C13.2758 5.28578 13.3663 5.30364 13.479 5.33026C13.7042 5.38349 14.0182 5.47187 14.3961 5.61539C15.1521 5.90258 16.1644 6.41076 17.2302 7.29891C18.2971 8.18801 18.9196 9.0429 19.2783 9.69873C19.4572 10.0257 19.5691 10.3009 19.6379 10.503C19.6723 10.6041 19.6959 10.6868 19.7116 10.7485C19.7195 10.7793 19.7254 10.8049 19.7297 10.825L19.7351 10.8508L19.7369 10.8605L19.7377 10.8646L19.738 10.8664L19.7382 10.8673C19.7382 10.8677 19.7383 10.8681 19 11.0001L19.7383 10.8681C19.8112 11.2758 19.5398 11.6655 19.132 11.7384C18.7272 11.8107 18.3403 11.5438 18.2634 11.141C18.2628 11.1383 18.2611 11.1308 18.2581 11.119C18.2517 11.0939 18.2392 11.0489 18.2179 10.9863C18.1754 10.8613 18.0975 10.6658 17.9623 10.4185C17.6928 9.9259 17.1903 9.2183 16.2699 8.45124C15.3483 7.68325 14.4855 7.25393 13.8634 7.01765C13.5522 6.89944 13.3014 6.8296 13.134 6.79004C13.0503 6.77027 12.9877 6.75809 12.9489 6.75123C12.9295 6.74781 12.9162 6.74571 12.9092 6.74466L12.9037 6.74387C12.4947 6.69096 12.2049 6.31743 12.2557 5.90767Z" fill="#1A5BE6"/>
<path fill-rule="evenodd" clip-rule="evenodd" d="M12.2582 1.88945C12.3193 1.47976 12.7009 1.19713 13.1106 1.25817L13 1.99998C13.1106 1.25817 13.1109 1.25822 13.1113 1.25827L13.112 1.25839L13.1138 1.25865L13.118 1.2593L13.1292 1.26111L13.1632 1.26697C13.1908 1.27194 13.2284 1.27913 13.2753 1.2891C13.3691 1.30902 13.5003 1.34005 13.6644 1.38657C13.9924 1.47961 14.4519 1.63471 15.0057 1.88713C16.1145 2.39253 17.5967 3.28594 19.1554 4.84465C20.7141 6.40336 21.6075 7.88548 22.1129 8.99432C22.3653 9.54811 22.5204 10.0076 22.6135 10.3356C22.66 10.4997 22.691 10.6309 22.7109 10.7247C22.7209 10.7716 22.7281 10.8092 22.733 10.8368L22.7389 10.8708L22.7407 10.8821L22.7414 10.8862L22.7416 10.888L22.7417 10.8887C22.7418 10.8891 22.7419 10.8895 22 11L22.7419 10.8895C22.8029 11.2991 22.5203 11.6807 22.1106 11.7418C21.702 11.8027 21.3215 11.5218 21.2588 11.114C21.2588 11.114 21.2588 11.114 21.2588 11.114C21.2587 11.1139 21.2587 11.1139 21.2587 11.1138L21.2567 11.1023C21.2545 11.0898 21.2503 11.0676 21.2437 11.0364C21.2304 10.974 21.2074 10.8753 21.1704 10.7449C21.0964 10.4841 20.9667 10.0963 20.748 9.61644C20.3112 8.65804 19.5171 7.32766 18.0947 5.90531C16.6724 4.48295 15.342 3.68886 14.3836 3.25203C13.9037 3.03333 13.5159 2.90363 13.2551 2.82965C13.1247 2.79266 13.0261 2.76962 12.9636 2.75636C12.9324 2.74973 12.9103 2.74555 12.8977 2.74329M12.2582 1.88945C12.1974 2.29799 12.4782 2.67859 12.886 2.74127L12.2582 1.88945ZM21.2586 11.1128C21.2586 11.1127 21.2586 11.1126 21.2585 11.1126L21.2586 11.1127L21.2586 11.1128ZM21.2584 11.1117C21.2584 11.1115 21.2584 11.1113 21.2583 11.1111C21.2583 11.1111 21.2583 11.1112 21.2583 11.1112L21.2584 11.1117Z" fill="#1A5BE6"/>
</g>
<defs>
<clipPath id="clip0">
<rect width="24" height="24" fill="white"/>
</clipPath>
</defs>
</svg>
