<svg width="25" height="30" viewBox="0 0 25 30" fill="none" xmlns="http://www.w3.org/2000/svg">
<path d="M12.2445 5C7.71966 5 4 8.56639 4 13.6538C4 15.4693 4.42314 16.7322 5.20905 18.1311L11.6897 29.6696V29.6693C11.8014 29.8735 12.014 30 12.2447 30C12.4754 30 12.6879 29.8735 12.7996 29.6693L19.2803 18.1309C20.0662 16.7322 20.4894 15.4693 20.4894 13.6538C20.4894 8.56645 16.7696 5.00001 12.2448 5.00001L12.2445 5ZM12.2445 9.48706C14.346 9.48706 16.0496 11.209 16.0496 13.3332C16.0496 15.4573 14.346 17.1792 12.2445 17.1792C10.143 17.1792 8.43941 15.4573 8.43941 13.3332C8.43941 11.209 10.143 9.48706 12.2445 9.48706Z" fill="#1A5BE6"/>
</svg>
