<svg width="40" height="45" viewBox="0 0 40 45" fill="none" xmlns="http://www.w3.org/2000/svg">
<path fill-rule="evenodd" clip-rule="evenodd" d="M1.99999 5H37.9999C39.1023 5 40 5.99649 40 7.22021V33.8636C40 35.0873 39.1023 36.0838 38 36.0838H17.4883C17.2757 36.0838 17.0709 36.18 16.9213 36.3461L9.36225 44.7376C8.85831 45.297 8.00003 44.9036 8.00003 44.1082V36.9754C8.00003 36.4772 7.63784 36.0839 7.19689 36.0839H1.99999C0.897659 36.0839 0 35.0873 0 33.8636V7.22023C0 5.99651 0.897659 5 1.99999 5ZM24.6351 22.0745L21.9659 27.9566H25.9697L28.639 22.0745V13.2515H20.6313V22.0745H24.6351ZM15.2929 22.0745L12.6237 27.9566H16.6275L19.2967 22.0745V13.2515H11.2891V22.0745H15.2929Z" fill="white"/>
</svg>
