<svg width="60" height="60" viewBox="0 0 60 60" fill="none" xmlns="http://www.w3.org/2000/svg">
<circle cx="30" cy="30" r="30" fill="#1A5BE6"/>
<path d="M46.395 20H13.7551C13.4865 20 13.2678 20.2186 13.2678 20.4873V22.7073C13.2678 24.1969 14.2755 25.4435 15.6413 25.8366V33.167C15.6411 41.1261 22.1157 47.6011 30.0748 47.6011C38.0339 47.6011 44.509 41.1264 44.509 33.167V25.8366C45.8745 25.4432 46.8825 24.1966 46.8825 22.7073V20.4873C46.8825 20.2186 46.6636 20 46.395 20H46.395ZM43.5345 33.1669C43.5345 40.589 37.4971 46.6261 30.0754 46.6261C22.6536 46.6261 16.6163 40.5887 16.6163 33.1669V25.9776H43.5352L43.5345 33.1669ZM45.9077 22.7076C45.9077 23.9745 44.8773 25.0035 43.6105 25.0035H16.5396C15.2727 25.0035 14.2423 23.9742 14.2423 22.7076L14.2426 20.9748H45.9081L45.9077 22.7076Z" fill="white"/>
<path d="M30.0751 44.4449C34.5652 44.4449 38.2183 40.7917 38.2183 36.3017C38.2183 31.8129 34.5651 28.1592 30.0751 28.1592C25.5851 28.1592 21.9319 31.8124 21.9319 36.3017C21.9319 40.7915 25.5851 44.4449 30.0751 44.4449ZM30.0751 29.1335C34.028 29.1335 37.2439 32.3484 37.2439 36.301C37.2439 40.2541 34.028 43.4699 30.0751 43.4699C26.1222 43.4699 22.9063 40.2539 22.9063 36.301C22.9063 32.3481 26.1222 29.1335 30.0751 29.1335Z" fill="white"/>
<path d="M30.0751 39.5254C31.8517 39.5254 33.2982 38.0791 33.2982 36.3022C33.2982 34.5254 31.8516 33.0791 30.0751 33.0791C28.2985 33.0791 26.8519 34.5254 26.8519 36.3022C26.8519 38.0789 28.2985 39.5254 30.0751 39.5254ZM30.0751 34.0535C31.3147 34.0535 32.3237 35.0625 32.3237 36.3022C32.3237 37.5418 31.3147 38.5508 30.0751 38.5508C28.8354 38.5508 27.8264 37.5418 27.8264 36.3022C27.8264 35.0625 28.8354 34.0535 30.0751 34.0535Z" fill="white"/>
<path d="M30.075 37.6841C30.8368 37.6841 31.4571 37.0637 31.4571 36.302C31.4571 35.5402 30.8367 34.9209 30.075 34.9209C29.3132 34.9209 28.6929 35.5402 28.6929 36.302C28.6929 37.0638 29.3132 37.6841 30.075 37.6841ZM30.075 35.8954C30.2995 35.8954 30.4826 36.0771 30.4826 36.3019C30.4826 36.5265 30.2995 36.7095 30.075 36.7095C29.8505 36.7095 29.6674 36.5265 29.6674 36.3019C29.6674 36.0774 29.8505 35.8954 30.075 35.8954Z" fill="white"/>
<path d="M30.0751 32.2704C30.7906 32.2704 31.3741 31.6869 31.3741 30.9715C31.3741 30.2548 30.7906 29.6714 30.0751 29.6714C29.3596 29.6714 28.7761 30.2549 28.7761 30.9715C28.7761 31.687 29.3596 32.2704 30.0751 32.2704ZM30.0751 30.6459C30.2544 30.6459 30.3996 30.7921 30.3996 30.9714C30.3996 31.3304 29.7506 31.3304 29.7506 30.9714C29.7506 30.7921 29.8957 30.6459 30.0751 30.6459Z" fill="white"/>
<path d="M26.3056 33.8313C26.6383 33.8313 26.9725 33.7054 27.2253 33.451C27.7304 32.9447 27.7304 32.1209 27.2253 31.6147V31.6137C26.7177 31.1085 25.8966 31.1061 25.3866 31.6137C24.8804 32.1212 24.8804 32.9447 25.3866 33.4523C25.64 33.7052 25.9728 33.8313 26.3056 33.8313V33.8313ZM26.0762 32.3027C26.1393 32.2386 26.2224 32.2065 26.3069 32.2065C26.39 32.2065 26.4732 32.2386 26.5362 32.3016C26.6635 32.4299 26.6635 32.6368 26.5362 32.7627C26.409 32.8923 26.2011 32.8899 26.0762 32.7627C25.949 32.6355 25.949 32.4299 26.0762 32.3027Z" fill="white"/>
<path d="M26.0441 36.3019C26.0441 35.5864 25.4606 35.0029 24.7451 35.0029C24.0285 35.0029 23.4451 35.5864 23.4451 36.3019C23.4451 37.0185 24.0285 37.602 24.7451 37.602C25.4604 37.602 26.0441 37.0185 26.0441 36.3019ZM24.4193 36.3019C24.4193 36.1226 24.5655 35.9774 24.7448 35.9774C24.9242 35.9774 25.0693 36.1223 25.0693 36.3019C25.0696 36.6606 24.4193 36.6606 24.4193 36.3019Z" fill="white"/>
<path d="M26.3056 41.3698C26.6383 41.3698 26.9725 41.2439 27.2253 40.9894C27.7291 40.4832 27.7291 39.6608 27.2253 39.1532C26.7177 38.648 25.8966 38.647 25.3866 39.1532C24.8804 39.6594 24.8804 40.4843 25.3866 40.9905C25.64 41.2439 25.9728 41.3698 26.3056 41.3698V41.3698ZM26.0762 39.8428C26.1393 39.7787 26.2224 39.7466 26.3069 39.7466C26.39 39.7466 26.4732 39.7787 26.5362 39.8418C26.6621 39.969 26.6621 40.1756 26.5362 40.3018C26.409 40.4314 26.2011 40.429 26.0762 40.3018C25.949 40.1756 25.949 39.9687 26.0762 39.8428V39.8428Z" fill="white"/>
<path d="M30.0751 40.3335C29.3596 40.3335 28.7761 40.917 28.7761 41.6336C28.7761 42.3491 29.3596 42.9325 30.0751 42.9325C30.7906 42.9325 31.3741 42.3491 31.3741 41.6336C31.3741 40.917 30.7906 40.3335 30.0751 40.3335ZM29.7506 41.6336C29.7506 41.4542 29.8955 41.308 30.0751 41.308C30.2544 41.308 30.3996 41.4542 30.3996 41.6336C30.3996 41.9925 29.7506 41.9925 29.7506 41.6336Z" fill="white"/>
<path d="M33.8444 38.773H33.8434C33.4964 38.773 33.1706 38.9085 32.9258 39.1533C32.4206 39.6596 32.4196 40.4834 32.9258 40.9896C33.1706 41.2355 33.4962 41.371 33.8434 41.371H33.8444C34.1914 41.371 34.5172 41.2354 34.7631 40.9906C35.2693 40.4844 35.2693 39.6596 34.7631 39.1533C34.5172 38.9085 34.1916 38.7729 33.8444 38.7729V38.773ZM34.0738 40.3013C34.0131 40.363 33.931 40.3975 33.8444 40.3975H33.8434C33.7578 40.3975 33.6758 40.363 33.6151 40.3024V40.3013C33.4879 40.1754 33.4879 39.9685 33.6151 39.8413C33.6758 39.7806 33.7578 39.7462 33.8434 39.7462H33.8444C33.9313 39.7462 34.0131 39.7806 34.0738 39.8424C34.201 39.9685 34.201 40.1754 34.0738 40.3013V40.3013Z" fill="white"/>
<path d="M34.106 36.3019C34.106 37.0185 34.6894 37.602 35.406 37.602C36.1215 37.602 36.705 37.0185 36.705 36.3019C36.705 35.5864 36.1215 35.0029 35.406 35.0029C34.6897 35.0029 34.106 35.5864 34.106 36.3019ZM35.4063 35.9774C35.5856 35.9774 35.7308 36.1223 35.7308 36.3019C35.7308 36.6609 35.0807 36.6609 35.0807 36.3019C35.0805 36.1223 35.2267 35.9774 35.4063 35.9774Z" fill="white"/>
<path d="M33.8438 33.8327H33.8448C34.1918 33.8327 34.5176 33.6972 34.7635 33.4524C35.2697 32.9448 35.2697 32.1213 34.7635 31.6137C34.5176 31.3689 34.1918 31.2334 33.8448 31.2334H33.8438C33.4968 31.2334 33.171 31.3689 32.9262 31.6137C32.42 32.1213 32.42 32.9448 32.9262 33.4511C33.171 33.6973 33.4966 33.8328 33.8438 33.8328V33.8327ZM33.6155 32.302C33.6762 32.2413 33.7582 32.2069 33.8438 32.2069H33.8448C33.9317 32.2069 34.0135 32.2413 34.0742 32.3031C34.2014 32.4303 34.2014 32.6358 34.0742 32.7631C34.0135 32.8248 33.9314 32.8593 33.8448 32.8593H33.8438C33.7582 32.8593 33.6762 32.8248 33.6155 32.7631C33.4883 32.6358 33.4883 32.4303 33.6155 32.302Z" fill="white"/>
</svg>
