<svg width="60" height="60" viewBox="0 0 60 60" fill="none" xmlns="http://www.w3.org/2000/svg">
<circle cx="30" cy="30" r="30" fill="#1A5BE6"/>
<path d="M46.5868 37.3398H45.3644C45.1219 29.831 39.4675 23.6664 32.1833 22.6281C32.8281 22.0373 33.2334 21.1888 33.2334 20.2472C33.2334 18.4671 31.7848 17.0186 30.0041 17.0186C28.224 17.0186 26.7755 18.4671 26.7755 20.2472C26.7755 21.1888 27.1807 22.037 27.8252 22.6278C20.5405 23.6664 14.8858 29.8308 14.6434 37.3402H13.421C13.1441 37.3402 12.9193 37.5656 12.9193 37.8428C12.9193 39.3807 14.1705 40.6322 15.7087 40.6322H16.9977C18.1103 42.008 19.9234 42.9999 21.3407 42.9999H38.6673C40.0837 42.9999 41.8977 42.0076 43.0106 40.6322H44.2999C45.8378 40.6322 47.0893 39.381 47.0893 37.8428C47.0887 37.5656 46.8631 37.3402 46.5864 37.3402L46.5868 37.3398ZM38.6672 41.9943H21.3407C20.5036 41.9943 19.4075 41.4917 18.5306 40.759H41.4774C40.5999 41.492 39.5041 41.9943 38.6669 41.9943H38.6672ZM27.7787 20.2474C27.7787 19.0206 28.7769 18.0225 30.0036 18.0225C31.2303 18.0225 32.2279 19.0206 32.2279 20.2474C32.2279 21.4747 31.2303 22.4729 30.0036 22.4729C28.7769 22.4729 27.7787 21.4747 27.7787 20.2474ZM30.0036 23.4766C37.7562 23.4766 44.093 29.6505 44.3588 37.3403H15.6476C15.9134 29.6511 22.2506 23.4766 30.0036 23.4766ZM44.2992 39.6267H15.708C14.8978 39.6267 14.2117 39.0849 13.994 38.3448H46.0126C45.7943 39.0849 45.1094 39.6267 44.2992 39.6267Z" fill="#F2F2F2"/>
<path d="M25.3676 27.544C22.7947 28.6324 20.7627 30.6417 19.6451 33.2011C19.5341 33.4548 19.6504 33.7512 19.9043 33.8615C19.9698 33.891 20.0379 33.9043 20.1055 33.9043C20.2984 33.9043 20.483 33.7916 20.5656 33.6028C21.5797 31.2791 23.4241 29.4563 25.7587 28.4678C26.0141 28.3599 26.1336 28.0652 26.0253 27.8104C25.9177 27.5549 25.6218 27.4343 25.3676 27.544L25.3676 27.544Z" fill="#F2F2F2"/>
</svg>
