<svg width="42" height="37" viewBox="0 0 42 37" fill="none" xmlns="http://www.w3.org/2000/svg">
<path d="M37.8011 6.76823H28.9327V2.70743C28.9321 1.98949 28.6368 1.30148 28.1117 0.794103C27.587 0.286419 26.8751 0.000942723 26.1329 0H15.8662C15.124 0.000944174 14.4121 0.286419 13.8874 0.794103C13.3623 1.30147 13.067 1.98951 13.0664 2.70743V6.76823H4.19885C3.0856 6.76949 2.01817 7.19754 1.23109 7.95888C0.443977 8.71993 0.00125 9.75167 0 10.8281V32.9402C0.00130209 34.0166 0.44401 35.0483 1.23109 35.8093C2.0182 36.5707 3.0856 36.9988 4.19885 37H37.8015C38.9147 36.9987 39.9818 36.5704 40.7689 35.8093C41.556 35.0483 41.9987 34.0162 42 32.9402V10.8281C41.9987 9.75199 41.556 8.71991 40.7689 7.95888C39.9818 7.19783 38.9147 6.76944 37.8015 6.76823H37.8011ZM24.4994 13.4239C24.9942 13.4245 25.4688 13.6146 25.8187 13.9529C26.1686 14.2916 26.3656 14.7502 26.3659 15.2286V20.1922H22.6325V15.2286H22.6328C22.6331 14.7502 22.8301 14.2916 23.18 13.9529C23.5299 13.6146 24.0045 13.4245 24.4993 13.4239H24.4994ZM23.916 12.3515C23.2266 12.4831 22.6054 12.8415 22.1585 13.3662C21.7119 13.8909 21.4671 14.5491 21.4661 15.2286V20.7562C21.4661 20.9057 21.5273 21.0492 21.6367 21.1549C21.7461 21.2607 21.8945 21.3202 22.0495 21.3202H26.9496H26.9492C27.1042 21.3202 27.2526 21.2607 27.362 21.1549C27.4714 21.0492 27.5326 20.9056 27.5326 20.7562V15.2286C27.5316 14.549 27.2868 13.8909 26.8402 13.3662C26.3933 12.8416 25.7722 12.4831 25.0827 12.3515V8.57326H32.6661V35.1951H9.33263V8.57326H23.916L23.916 12.3515ZM14.9327 2.70751C14.9333 2.20927 15.351 1.80548 15.8659 1.80515H26.1326C26.6476 1.80547 27.0652 2.20928 27.0659 2.70751V6.76831H14.9325L14.9327 2.70751ZM1.86594 32.9399V10.8278C1.86659 10.2301 2.11268 9.65699 2.54986 9.2343C2.98704 8.81128 3.57978 8.57365 4.19828 8.57302H7.46621V35.1949H4.19828C3.57979 35.1943 2.98703 34.9566 2.54986 34.5336C2.11268 34.1109 1.86659 33.5378 1.86594 32.9401V32.9399ZM40.1328 32.9399H40.1331C40.1324 33.5376 39.8863 34.1108 39.4492 34.5334C39.012 34.9562 38.4192 35.1941 37.8011 35.1947H34.5328V8.57286H37.8011C38.4192 8.57349 39.012 8.81143 39.4492 9.23414C39.8863 9.65684 40.1324 10.23 40.1331 10.8277L40.1328 32.9399Z" fill="#1A5BE6"/>
</svg>
