<svg width="44" height="44" viewBox="0 0 44 44" fill="none" xmlns="http://www.w3.org/2000/svg">
<path d="M43.1291 43.5371C43.3568 43.5371 43.5789 43.4478 43.744 43.2829C43.9582 43.0694 44.0463 42.7599 43.9765 42.4655L37.8814 16.7788C37.8091 16.474 37.5785 16.2317 37.2779 16.1439L26.829 13.0964C26.5239 13.0073 26.1941 13.0917 25.9696 13.3166L14.6499 24.6362C14.4219 24.8643 14.3385 25.1997 14.4335 25.5079L17.9166 36.8276C18.0063 37.1188 18.2416 37.3421 18.5372 37.4163L42.0474 43.3027L42.9264 43.5136C42.9933 43.5294 43.0616 43.5373 43.1291 43.5373L43.1291 43.5371ZM36.3038 17.6733L41.9536 41.4834L19.4363 35.8457L16.252 25.4962L26.8367 14.9115L36.3038 17.6733Z" fill="#1A5BE6"/>
<path d="M12.6532 27.4592C13.7082 27.4592 14.6998 27.0483 15.4459 26.3025L27.6364 14.112C29.1761 12.5723 29.1761 10.0668 27.6364 8.52675C26.8904 7.78073 25.8986 7.37012 24.8437 7.37012C23.7888 7.37012 22.7971 7.78102 22.0511 8.52675L9.8606 20.7172C8.32088 22.2573 8.32088 24.7625 9.8606 26.3025C10.6066 27.0482 11.5983 27.4592 12.6532 27.4592ZM24.8437 9.11157C25.4334 9.11157 25.988 9.34118 26.405 9.75841C27.2657 10.6191 27.2657 12.0198 26.405 12.8805L14.2145 25.0709C13.7976 25.4879 13.2429 25.7178 12.6532 25.7178C12.0636 25.7178 11.509 25.4882 11.092 25.0709C10.6751 24.654 10.4452 24.0994 10.4452 23.5097C10.4452 22.92 10.6748 22.3655 11.092 21.9485L23.2825 9.758C23.6994 9.3411 24.2541 9.11148 24.8437 9.11148V9.11157Z" fill="#1A5BE6"/>
<path d="M10.9116 21.7686C11.138 21.7686 11.3607 21.6805 11.5275 21.5134L22.8471 10.1937C23.1298 9.91104 23.1835 9.47265 22.9779 9.12999L17.7533 0.422728C17.6153 0.192793 17.379 0.0392979 17.1131 0.0064547C16.8472 -0.0260765 16.5806 0.0655168 16.3911 0.255019L0.717369 15.9287C0.515549 16.1306 0.425535 16.4189 0.476385 16.6997C0.52755 16.9808 0.712946 17.2189 0.972879 17.3371L10.5509 21.6909C10.6669 21.7434 10.7897 21.769 10.9113 21.769L10.9116 21.7686ZM21.1349 9.44308L10.7224 19.8556L2.83741 16.2714L16.8342 2.27464L21.1349 9.44308Z" fill="#1A5BE6"/>
<path d="M29.1968 29.605C29.4194 29.605 29.6424 29.52 29.8124 29.3498C30.1525 29.0096 30.1525 28.4585 29.8124 28.1184L21.1051 19.4111C20.7649 19.071 20.2138 19.071 19.8737 19.4111C19.5335 19.7513 19.5335 20.3024 19.8737 20.6425L28.5809 29.3498C28.7512 29.52 28.9742 29.605 29.1968 29.605H29.1968Z" fill="#1A5BE6"/>
<path d="M31.8094 34.8299C33.73 34.8299 35.2925 33.2675 35.2925 31.3468C35.2925 29.4262 33.73 27.8638 31.8094 27.8638C29.8888 27.8638 28.3263 29.4262 28.3263 31.3468C28.3263 33.2675 29.8888 34.8299 31.8094 34.8299ZM31.8094 29.6053C32.7696 29.6053 33.5509 30.3867 33.5509 31.3468C33.5509 32.307 32.7696 33.0884 31.8094 33.0884C30.8493 33.0884 30.0679 32.307 30.0679 31.3468C30.0679 30.3867 30.8493 29.6053 31.8094 29.6053Z" fill="#1A5BE6"/>
</svg>
