<svg width="42" height="43" viewBox="0 0 42 43" fill="none" xmlns="http://www.w3.org/2000/svg">
<path d="M9.6425 43C9.45102 43 9.25089 42.9585 9.06765 42.8666C8.59286 42.6418 8.30955 42.1835 8.30955 41.6589L8.32602 39.0098C6.19344 38.7681 4.21107 37.7939 2.69486 36.2278C1.00407 34.4785 0.0709229 32.1878 0.0709229 29.764C0.0709229 24.6328 4.24438 20.4597 9.37524 20.4597H20.3038C22.7778 20.4597 25.1102 21.4262 26.8759 23.1919C27.7839 24.0999 28.4753 25.1495 28.9501 26.3322C29.3916 27.4235 29.6082 28.5814 29.6082 29.764C29.6082 34.8953 25.4347 39.0683 20.3038 39.0683H15.0894C14.9811 39.0683 14.8728 39.1099 14.7896 39.1766L10.4835 42.7003C10.2418 42.9004 9.94203 43.0001 9.64225 43.0001L9.6425 43ZM9.37566 22.5502C5.39406 22.5502 2.15376 25.7905 2.15376 29.7721C2.15376 31.6461 2.8785 33.4288 4.19452 34.7868C5.50233 36.1445 7.25162 36.9277 9.11739 36.9943C9.85037 37.0194 10.417 37.619 10.417 38.3438L10.4087 40.0848L13.4741 37.5857C13.9324 37.211 14.5068 37.0109 15.0985 37.0109H20.313C24.2946 37.0109 27.5349 33.7706 27.5349 29.789C27.5349 28.8727 27.3599 27.9729 27.0267 27.1317C26.6603 26.2155 26.1188 25.3989 25.4191 24.6911C24.0532 23.3252 22.2372 22.5672 20.3213 22.5672H9.37583L9.37566 22.5502Z" fill="#1A5BE6"/>
<path d="M20.8293 31.4557C21.6875 31.4557 22.3789 30.7643 22.3789 29.9062C22.3789 29.0481 21.6875 28.3567 20.8293 28.3567C19.9712 28.3567 19.2798 29.0481 19.2798 29.9062C19.2881 30.7644 19.9794 31.4557 20.8293 31.4557Z" fill="#1A5BE6"/>
<path d="M14.7488 31.4557C15.6069 31.4557 16.2983 30.7643 16.2983 29.9062C16.2983 29.0481 15.6069 28.3567 14.7488 28.3567C13.8993 28.3567 13.1992 29.0481 13.1992 29.9062C13.1992 30.7644 13.8906 31.4557 14.7488 31.4557Z" fill="#1A5BE6"/>
<path d="M8.66006 31.4557C9.50957 31.4557 10.2096 30.7643 10.2096 29.9062C10.2096 29.0481 9.5182 28.3567 8.66006 28.3567C7.80192 28.3567 7.11053 29.0481 7.11053 29.9062C7.11877 30.7644 7.81016 31.4557 8.66006 31.4557Z" fill="#1A5BE6"/>
<path d="M31.5166 23.0004C31.2168 23.0004 30.9171 22.9003 30.6753 22.6923L26.3772 19.1773C26.294 19.1106 26.1857 19.069 26.0774 19.069H20.8629C15.7317 19.069 11.5586 14.8956 11.5586 9.76471C11.5586 8.58203 11.7835 7.42413 12.2167 6.33286C12.6832 5.15841 13.3828 4.10055 14.2908 3.19259C16.0566 1.44246 18.3889 0.467773 20.863 0.467773H31.7915C36.9228 0.467773 41.0958 4.64123 41.0958 9.77209C41.0958 12.1876 40.1627 14.4867 38.4719 16.2358C36.9557 17.8101 34.9733 18.7766 32.8408 19.0179L32.8572 21.6669C32.8572 22.1915 32.5657 22.6498 32.0991 22.8747C31.9081 22.9583 31.7079 23.0003 31.5165 23.0003L31.5166 23.0004ZM20.8632 2.55052C18.9471 2.55052 17.1316 3.30038 15.7653 4.67446C15.0575 5.38231 14.5159 6.19889 14.1577 7.11507C13.8163 7.96459 13.6496 8.85614 13.6496 9.77232C13.6496 13.7539 16.8899 16.9942 20.8715 16.9942H26.0859C26.6773 16.9942 27.252 17.2026 27.7018 17.5691L30.7671 20.0764L30.7588 18.3354C30.7588 17.6106 31.3255 17.0193 32.0498 16.9859C33.9155 16.9192 35.6648 16.1364 36.9809 14.7784C38.2969 13.4207 39.0134 11.6381 39.0134 9.76369C39.0134 5.78209 35.7731 2.54178 31.7915 2.54178L20.8629 2.54219L20.8632 2.55052Z" fill="#1A5BE6"/>
<path d="M25.6495 11.5974C25.4329 11.5974 25.2497 11.4141 25.2579 11.1975C25.2744 10.6976 25.3247 10.2895 25.4161 9.98974C25.5244 9.62325 25.8657 9.21517 26.4406 8.74034C26.707 8.53197 26.9319 8.31538 27.132 8.09878C27.307 7.89907 27.3902 7.64912 27.3902 7.35757C27.3902 6.69131 27.1151 6.32482 26.574 6.24121C26.4406 6.21609 26.3241 6.21609 26.2158 6.21609C25.8324 6.21609 25.5495 6.33263 25.3494 6.56611C25.2411 6.6744 25.1496 6.9326 25.0912 7.17431C25.0162 7.45762 24.7663 7.66557 24.4747 7.69893C24.1581 7.73228 23.7916 7.7574 23.6166 7.74875C23.2003 7.72364 23.0001 7.41562 23.0001 6.83253C23.0001 6.22433 23.3333 5.59146 23.7916 5.14997C24.1914 4.79996 24.758 4.53353 25.391 4.39188C25.666 4.32517 25.974 4.30005 26.2821 4.30005C26.6152 4.30005 26.957 4.34164 27.3066 4.42482C27.9395 4.57471 28.481 4.88314 28.9311 5.34104C29.3976 5.81583 29.6224 6.45741 29.6224 7.26532C29.6224 7.91512 29.489 8.415 29.2226 8.76467C28.9644 9.09781 28.6893 9.38935 28.3731 9.63107C28.1149 9.83944 27.8398 10.0643 27.5734 10.3142C27.3486 10.5226 27.2485 10.8224 27.2654 11.1971C27.2654 11.4137 27.0904 11.5805 26.882 11.5805L25.6495 11.5974Z" fill="#1A5BE6"/>
<path d="M26.6827 12.1805C27.0743 12.1805 27.3906 12.4972 27.3906 12.8884V13.6629C27.3906 14.0545 27.0739 14.3626 26.691 14.3626H25.9082C25.5166 14.3626 25.2003 14.0459 25.2003 13.6547V13.03C25.2003 12.4552 25.4754 12.1719 26.0334 12.1719H26.6827V12.1805Z" fill="#1A5BE6"/>
</svg>
