<svg width="37" height="48" viewBox="0 0 37 48" fill="none" xmlns="http://www.w3.org/2000/svg">
<path d="M32.7957 5.50062H26.7545C26.5818 5.00997 26.2616 4.58504 25.8374 4.28398C25.4136 3.98292 24.9068 3.82037 24.3869 3.81887H23.546V2.97799C23.5452 2.30905 23.2791 1.66785 22.8064 1.19485C22.3334 0.722223 21.6923 0.456072 21.0233 0.455322H15.978C15.3091 0.456073 14.6679 0.722223 14.1949 1.19485C13.7222 1.66784 13.4561 2.30904 13.4553 2.97799V3.81887H12.6145C12.0945 3.82038 11.5877 3.98292 11.1639 4.28398C10.7397 4.58505 10.4195 5.00999 10.2468 5.50062H4.20566C3.09108 5.50174 2.02234 5.94508 1.23403 6.7334C0.445716 7.52171 0.00240443 8.59044 0.00125122 9.70502V43.3403C0.00237742 44.4548 0.445716 45.5236 1.23403 46.3119C2.02234 47.1002 3.09108 47.5435 4.20566 47.5447H32.7956C33.9102 47.5435 34.9789 47.1002 35.7672 46.3119C36.5555 45.5236 36.9989 44.4548 37 43.3403V9.70502C36.9989 8.59044 36.5555 7.52171 35.7672 6.7334C34.9789 5.94508 33.9102 5.50177 32.7957 5.50062ZM15.1372 2.97797C15.1379 2.51399 15.5141 2.13784 15.978 2.13709H21.0233C21.4873 2.13784 21.8635 2.51399 21.8642 2.97797V3.81885H15.1372V2.97797ZM11.7736 6.3415C11.7744 5.87751 12.1505 5.50137 12.6145 5.50062H24.3869C24.8508 5.50137 25.227 5.87751 25.2277 6.3415V8.02326C25.227 8.69221 24.9608 9.3334 24.4882 9.80641C24.0152 10.279 23.374 10.5452 22.7051 10.5459H14.2963C13.6273 10.5452 12.9861 10.279 12.5131 9.80641C12.0405 9.33341 11.7743 8.69221 11.7736 8.02326L11.7736 6.3415ZM14.2963 12.2277H22.7051C24.0336 12.2243 25.2817 11.5906 26.0686 10.5203V10.5459H31.1139C31.5779 10.5466 31.954 10.9228 31.9548 11.3867V41.6585C31.954 42.1224 31.5779 42.4986 31.1139 42.4993H5.88747C5.42349 42.4986 5.04734 42.1224 5.04659 41.6585V11.3867C5.04734 10.9228 5.42349 10.5466 5.88747 10.5459H10.9328V10.5203C11.7196 11.5906 12.9678 12.2242 14.2963 12.2277ZM35.3183 43.3403C35.3176 44.0092 35.0514 44.6504 34.5788 45.1234C34.1058 45.596 33.4646 45.8622 32.7956 45.8629H4.20568C3.53674 45.8622 2.89554 45.596 2.42254 45.1234C1.94991 44.6504 1.68376 44.0092 1.68301 43.3403V9.70502C1.68376 9.03607 1.94991 8.39488 2.42254 7.92187C2.89553 7.44925 3.53673 7.1831 4.20568 7.18235H10.0918V8.02323C10.0918 8.30553 10.1204 8.58745 10.1767 8.86411H5.88743C5.21848 8.86486 4.57729 9.13101 4.10428 9.60363C3.63166 10.0766 3.3655 10.7178 3.36476 11.3868V41.6585C3.36551 42.3274 3.63166 42.9686 4.10428 43.4416C4.57728 43.9143 5.21847 44.1804 5.88743 44.1812H31.1139C31.7828 44.1804 32.424 43.9143 32.897 43.4416C33.3696 42.9686 33.6358 42.3274 33.6365 41.6585V11.3868C33.6358 10.7178 33.3696 10.0766 32.897 9.60363C32.424 9.13101 31.7828 8.86486 31.1139 8.86411H26.8246C26.8809 8.58745 26.9094 8.30553 26.9094 8.02323V7.18235H32.7956C33.4645 7.1831 34.1057 7.44925 34.5787 7.92187C35.0514 8.39487 35.3175 9.03606 35.3183 9.70502L35.3183 43.3403Z" fill="#1A5BE6"/>
<path d="M19.9294 32.0723H8.15706C7.6927 32.0723 7.31618 32.4488 7.31618 32.9131C7.31618 33.3775 7.6927 33.754 8.15706 33.754H19.9294C20.3937 33.754 20.7703 33.3775 20.7703 32.9131C20.7703 32.4488 20.3937 32.0723 19.9294 32.0723Z" fill="#1A5BE6"/>
<path d="M19.9294 28.7087H8.15706C7.6927 28.7087 7.31618 29.0853 7.31618 29.5496C7.31618 30.014 7.6927 30.3905 8.15706 30.3905H19.9294C20.3937 30.3905 20.7703 30.014 20.7703 29.5496C20.7703 29.0853 20.3937 28.7087 19.9294 28.7087Z" fill="#1A5BE6"/>
<path d="M19.9294 35.7722H8.15706C7.6927 35.7722 7.31618 36.1487 7.31618 36.6131C7.31618 37.0775 7.6927 37.454 8.15706 37.454H19.9294C20.3937 37.454 20.7703 37.0775 20.7703 36.6131C20.7703 36.1487 20.3937 35.7722 19.9294 35.7722Z" fill="#1A5BE6"/>
<path d="M18.5008 25.6818C20.062 25.6818 21.5591 25.0616 22.6628 23.9576C23.7668 22.854 24.3869 21.3569 24.3869 19.7956C24.3869 18.2342 23.7668 16.7373 22.6628 15.6336C21.5592 14.5296 20.0621 13.9094 18.5008 13.9094C16.9394 13.9094 15.4425 14.5296 14.3388 15.6336C13.2347 16.7372 12.6146 18.2342 12.6146 19.7956C12.6165 21.3561 13.2374 22.8521 14.3407 23.9557C15.4443 25.0589 16.9403 25.6798 18.5008 25.6818ZM18.5008 15.5912C19.6157 15.5912 20.6851 16.0342 21.4739 16.8224C22.2623 17.6111 22.7052 18.6806 22.7052 19.7956C22.7052 20.9105 22.2622 21.98 21.4739 22.7688C20.6852 23.5571 19.6157 24 18.5008 24C17.3858 24 16.3164 23.557 15.5276 22.7688C14.7393 21.9801 14.2964 20.9105 14.2964 19.7956C14.2975 18.681 14.7408 17.6123 15.5291 16.824C16.3175 16.0357 17.3862 15.5923 18.5008 15.5912Z" fill="#1A5BE6"/>
<path d="M17.6599 22.3182H19.3417V20.6365H21.0235V18.9547H19.3417V17.2729H17.6599V18.9547H15.9782V20.6365H17.6599V22.3182Z" fill="#1A5BE6"/>
</svg>
