<svg width="60" height="60" viewBox="0 0 60 60" fill="none" xmlns="http://www.w3.org/2000/svg">
<circle cx="30" cy="30" r="30" fill="white"/>
<path d="M12.2921 16H17.7057C17.8644 16 18 15.7745 18 15.5018C18 15.2253 17.8666 15 17.7057 15H12.2921C12.1311 15 12 15.2255 12 15.5018C11.9999 15.7747 12.1311 16 12.2921 16Z" fill="#1A5BE6"/>
<path d="M15.3186 21H9.32326C9.14758 21 9 21.2104 9 21.4727C9 21.7351 9.14757 21.9488 9.32326 21.9488H15.3186C15.4943 21.9488 15.6418 21.7349 15.6418 21.4727C15.642 21.2104 15.4943 21 15.3186 21Z" fill="#1A5BE6"/>
<path d="M16.0511 18.6809C16.0511 18.4186 15.8825 18.2048 15.6789 18.2048H8.82987C8.6291 18.2048 8.46045 18.4186 8.46045 18.6809C8.46045 18.9433 8.6291 19.1537 8.82987 19.1537H12.2556H15.6813C15.8821 19.1537 16.0511 18.9433 16.0511 18.6809Z" fill="#1A5BE6"/>
<path d="M29.7414 15.4883C21.8871 15.4883 15.4883 21.8818 15.4883 29.7468C15.4883 37.6065 21.8868 44.0054 29.7414 44.0054C37.606 44.0054 43.9999 37.6068 43.9999 29.7468C43.995 21.8822 37.6064 15.4883 29.7414 15.4883ZM29.7414 42.5992C22.6505 42.5992 16.8827 36.8369 16.8827 29.7459C16.8827 22.6549 22.6502 16.8872 29.7414 16.8872C36.8273 16.8872 42.5946 22.6547 42.5946 29.7459C42.5946 36.8371 36.8275 42.5992 29.7414 42.5992Z" fill="#1A5BE6"/>
<path d="M29.7413 21.4032L29.7516 21.3982V21.4032C29.9398 21.4032 30.1081 21.3219 30.2303 21.1998H30.2406C30.2814 21.154 30.2814 21.0879 30.3119 21.0318C30.373 20.9299 30.439 20.8333 30.439 20.7058L30.4387 20.7009V17.774C30.4387 17.387 30.1383 17.0716 29.7516 17.0716L29.7413 17.0713C29.3646 17.0713 29.0439 17.387 29.0439 17.7736V20.7005C29.0439 21.0929 29.3596 21.4032 29.7413 21.4032H29.7413Z" fill="#1A5BE6"/>
<path d="M41.7082 29.0442H38.7862C38.3992 29.0442 38.0889 29.3595 38.0889 29.7465C38.0889 30.1336 38.3992 30.4439 38.7862 30.4439H41.7082C42.0952 30.4439 42.4056 30.1336 42.4056 29.7465C42.4056 29.3595 42.0949 29.0442 41.7082 29.0442Z" fill="#1A5BE6"/>
<path d="M29.7413 38.0906C29.3646 38.0906 29.0439 38.4062 29.0439 38.788V41.7202C29.0439 42.1019 29.3646 42.4176 29.7413 42.4176C30.1383 42.4176 30.4387 42.1019 30.4387 41.7202V38.7827C30.4337 38.401 30.1383 38.0906 29.7413 38.0906V38.0906Z" fill="#1A5BE6"/>
<path d="M20.7059 29.0442H17.7736C17.3866 29.0442 17.0713 29.3595 17.0713 29.7465C17.0713 30.1336 17.3919 30.4439 17.7736 30.4439H20.7059C21.0876 30.4439 21.4033 30.1336 21.4033 29.7465C21.4033 29.3595 21.0876 29.0442 20.7059 29.0442Z" fill="#1A5BE6"/>
<path d="M30.5248 29.4315L31.8687 22.254C31.9401 21.8723 31.6905 21.5108 31.3137 21.4394C30.932 21.3634 30.5652 21.6127 30.4942 21.9944L29.0536 29.6201C29.0029 29.8949 29.125 30.1648 29.354 30.3278L33.9352 33.5093C34.0421 33.5959 34.1845 33.6314 34.3222 33.6314C34.541 33.6314 34.7703 33.5245 34.9078 33.331C35.1265 33.0104 35.0452 32.5726 34.7196 32.3535L30.5248 29.4315Z" fill="#1A5BE6"/>
</svg>
