<svg width="342" height="219" viewBox="0 0 342 219" fill="none" xmlns="http://www.w3.org/2000/svg">
<path d="M341 148.12H277.613V85.461H274.671V142.567H248.394V148.119H207.018V142.171H242.316V138.8H205.254V145.933L165.184 138.597V78.8458H168.322V136.085L200.154 141.504V85.0654H201.529L201.332 99.9365H226.236V134.042H233.688V98.7471H220.941V134.24L212.512 134.306V94.3848L235.063 94.319V86.6514H210.548L210.156 136.619L237.217 136.421L236.909 71.2745L241.706 70.7891L260.672 21.8191L271.404 74.1287L260.088 69.3384L259.964 51.6252L263.363 54.0051V68.8104L253.689 64.9761L253.559 46.9989L257.742 49.778L258.108 69.9026L276.425 77.6989L263.886 12.3618L221.791 21.3476L222.509 19.5662L262.889 10.5989L240.689 68.8409L214.925 70.3759L212.409 67.7209L213.821 72.3751L225.064 71.5821L237.086 77.4016L245.973 66.563L287.023 83.4832L196.559 82.4216L182.113 85.1312L199.828 74.7558L187.213 82.6207L197.606 80.1751L211.332 65.7672L201.657 72.5362L164.073 74.1259L200.939 23.6645L220.545 19.8311L202.704 8.32927L182.899 35.4943L180.937 33.7101L200.939 6.74331L165.446 17.2521L137.6 5.55385L167.406 21.0243L184.663 40.4559L160.151 31.3302L127.756 2.40325L128.977 0.86084L156.294 24.2583V107.009L154.554 107.102V80.4058L114.197 79.9028V105.686L128.316 106.612V82.4234L116.029 82.5541L116.354 114.012L98.6418 112.561V113.883L130.932 116.328L126.123 120L90.1444 117.055L97.0651 112.696L96.9396 80.1121L105.307 78.4595L112.361 70.7928L112.098 44.6857L143.479 36.2252L143.61 54.9314L136.937 55.3946L137.077 39.3276L138.777 38.8644L138.643 60.8297L127.939 61.2678L128.318 41.5092L130.213 40.9145L130.088 56.5128L122.13 57.2131L122.249 40.2512L111.758 43.2934L104.002 43.0331L127.272 4.49593L131.971 8.14677L110.8 40.254V52.9453L86.6136 79.912H95.2419V148.122L141.857 151.228V148.742C141.857 148.022 129.906 149.415 124.063 146.148C118.22 142.88 125.241 145.111 128.779 145.111C132.316 145.111 153.945 148.376 162.249 144.023C170.553 139.67 150.785 141.656 144.842 142.692C139.833 143.565 123.656 142.934 121.043 140.602C118.429 138.269 126.27 139.047 133.19 139.824C140.11 140.602 142.419 141.141 141.802 139.047C140.879 135.92 123.608 137.545 121.059 135.434C117.198 132.238 132.336 135.504 142.263 132.514C152.323 129.485 138.709 137.871 150.857 137.715C163.005 137.559 166.405 135.166 164.406 132.441C162.407 129.717 161.484 134.942 154.206 133.707C146.073 132.324 154.137 131.08 158.99 128.731C165.446 125.605 146.564 128.791 142.211 129.492C138.321 130.117 128.987 133.603 126.527 131.012C124.066 128.421 137.906 128.385 140.058 127.315C142.21 126.244 126.527 125.414 129.602 124.377C132.678 123.34 153.488 124.792 156.359 123.859C159.229 122.926 143.749 122.099 143.749 122.099C143.749 122.099 127.962 121.684 131.038 119.505C134.113 117.326 146.415 119.505 154.923 118.572C163.431 117.64 147.183 116.551 145.595 116.349C144.006 116.147 144.594 115.336 145.119 115.272C147.684 114.961 151.796 115.986 155.692 114.69C159.587 113.394 151.202 113.693 144.569 113.446C138.057 113.204 130.418 113.147 133.354 114.874C138.257 117.759 146.26 113.558 146.885 112.796C147.639 111.869 133.129 112.219 133.857 110.387C134.819 107.966 144.942 112.274 152.877 109.883C156.393 108.823 147.491 109.182 143.544 109.084C139.597 108.987 131.085 108.054 133.498 106.758C135.911 105.462 139.459 107.265 143.201 107.213C146.942 107.161 151.732 104.191 150.447 104.301C145.273 104.743 135.394 104.893 137.906 103.597C140.418 102.301 145.556 103.347 148.003 102.405C150.515 101.437 142.776 100.923 137.906 100.608C133.037 100.293 140.024 98.9499 142.57 99.2955C143.129 99.3714 147.594 100.129 148.26 98.9842C148.926 97.8392 137.871 98.1505 137.666 96.911C137.461 95.6715 143.288 95.9781 144.569 96.03C145.851 96.0819 153.744 94.2699 144.569 94.2162C135.395 94.1624 133.323 92.5941 138.808 92.5941C144.293 92.5941 149.385 94.118 145.643 92.356C141.902 90.5941 135.24 89.639 140.393 89.1795C144.296 88.8312 141.824 87.1498 143.416 86.4754C145.008 85.801 141.907 82.8097 141.961 84.3123C142.015 85.8149 143.457 151.164 143.457 151.164H188.72L1 178.715L34.9792 197.428L203.491 152.881L213.165 157.772L215.257 157.507L207.413 151.295L273.302 148.122L310.56 162.398L233.297 168.345L216.825 159.224L70.5351 217.783" stroke="#5A5A5A" stroke-width="0.5" stroke-linecap="round" stroke-linejoin="round"/>
</svg>
