<svg width="52" height="52" viewBox="0 0 52 52" fill="none" xmlns="http://www.w3.org/2000/svg">
<rect width="52" height="52" rx="5" fill="#1A5BE6"/>
<path d="M15.7348 25.3217C15.3602 24.9159 14.7275 24.8906 14.3217 25.2652C13.9159 25.6398 13.8906 26.2725 14.2652 26.6783L15.7348 25.3217ZM21 32.5L20.2652 33.1783C20.4459 33.374 20.6972 33.4896 20.9634 33.4993C21.2295 33.5091 21.4886 33.4122 21.6832 33.2303L21 32.5ZM37.1832 18.7303C37.5865 18.353 37.6076 17.7202 37.2303 17.3168C36.853 16.9135 36.2202 16.8924 35.8168 17.2697L37.1832 18.7303ZM14.2652 26.6783L20.2652 33.1783L21.7348 31.8217L15.7348 25.3217L14.2652 26.6783ZM21.6832 33.2303L37.1832 18.7303L35.8168 17.2697L20.3168 31.7697L21.6832 33.2303Z" fill="white"/>
</svg>
